<svg xmlns="http://www.w3.org/2000/svg" viewBox="0 0 328.8 72.9">
    <style type="text/css">
    .svg-color {
        fill: #C4D7A4;
    }
    </style>
    <path class="svg-color" d="M33.3 50.1c1.5 1.7 1.5 4-0.6 5.1 -1.5 0.8-4.3 0.9-5.8 0 -2.9-1.7-3.4-4.9-2.7-8.1 1-4.8 4.3-7.7 8.9-8.6 5.4-1.1 9.6 1.6 12.8 5.7 3.9 5.2 5.4 11.1 2.2 17.2 -3.7 6.9-10.1 9.3-17.4 8.9C15.7 69.5 4 56.8 2.9 41.4 1.6 23.8 8.6 16.3 18.5 11.7c8.5-3.9 17.7-4.7 26.9-3.4 7.5 1 14.5 3.2 20 8.9 0.6 0.6 1.7 1.1 2.4 1 10-2.8 18.7 0.9 27.6 4.5 7.6 3.1 15.5 5.4 23.3 7.8 2.3 0.7 4.9 0.3 7.4 0.4 0.4-4.2 0.4-8.1 1.4-11.7 1-3.5 2.7-6.9 4.6-10 1.8-2.7 4.6-4.8 8.1-3.2 3.6 1.6 3.1 5 2.5 8 -1.4 7.9-5.5 14-12.7 17.6 2.2 7.5 11 11.7 20.7 10.4 4.2-0.5 7.3-4 7.3-7.8 -0.3 0-0.6 0-0.7 0.1 -1 0.9-2 1.8-2.9 2.7 -0.5-0.7-1.6-1.6-1.4-2.1 0.4-1.5 1-3.4 2.2-4.2 1.3-0.9 3.3-0.7 5.2-1 -2.5-8.6-6-17.4 2.2-25.9 7.8 8.3 5.4 17.3 3.1 26.4 1.4-0.1 2.7-0.4 3.9-0.1 1.3 0.3 3.2 0.9 3.6 1.9 0.6 1.3 0 3.1-0.1 4.6 -1.4-0.7-2.7-1.4-4.4-2.3 0 0.4-0.3 1.4 0.1 1.9 1.3 1.6 2.6 3.5 4.3 4.6 7.5 4.4 20.7-0.8 23.8-9.4 -6.1-2.8-9.9-7.7-11.9-14 -0.6-1.7-0.8-3.6-1-5.5 -0.2-2.6-0.1-5.8 3-6.1 2.2-0.3 5.3 0.8 7 2.4 5.1 4.9 6.3 11.5 6.5 18.3 0 1.2-0.1 2.4-0.2 3.8 5.4 1.2 10.6 0 15.6-1.6 5.3-1.7 10.5-3.8 15.6-6 8.9-3.8 17.6-7.5 27.6-4.7 0.8 0.2 2.1-0.4 2.8-1.1 9.6-9 21.4-10 33.6-8.7 4.3 0.5 8.7 1.5 12.6 3.3 10.8 4.8 16.6 13.1 16.3 25.4 -0.3 13.7-5.2 24.6-17.8 31 -8.3 4.2-18.1 3.1-24.3-2.3 -5.1-4.5-6.3-12.3-2.9-18.6 3.7-6.7 9.7-9.8 15.7-8.1 6.9 2 10.4 10.5 6.4 15.5 -1.8 2.3-4.2 3-6.7 1.3 -1.9-1.3-2.9-3.2-1-5.4 0.1-0.2 0.5-0.2-0.1 0 1.4 1.6 2.6 4 3.6 3.9 3.1-0.2 3.8-3 3.6-5.6 -0.4-4.9-5.6-8.1-10.3-6.5 -5.6 1.9-8.2 6.3-8.8 11.8 -0.6 5.1 2.2 9 6.5 11.4 4.5 2.6 8.9 2.7 13.4-0.6 10.5-7.8 15.7-20.6 12.7-32.1 -1.6-6.2-5.4-11-11-14 -9.7-5.1-19.8-8.7-30.9-5.9 -3.5 0.9-6.7 3.4-10.6 5.5 2.3 1.6 3.7 2.5 5.1 3.5 10.8 8.7 11.4 26 1.2 35.6 -5.3 5-15.9 6.2-23.3 2.7 -6.1-2.9-9.4-9.2-8.9-16.8 0.5-7.7 5.3-11.5 14.4-11.6 2.2-3.9 4.4-7.7 6.8-11.8 -3.1-1.7-6.5-1-9.5 0.5 -4 2-8 4.3-11.6 6.9 -8.5 6.2-17.6 10.5-28.5 9.2 -3-0.3-5.9-1.2-8.9-1.8 -7.1 15.9-25.9 17.9-35.2 7.4 -11.3 12.2-29.8 5.8-34.9-7.7 -14.5 5.5-26.8 0.8-38.6-7.9 -4.1-3-8.9-5.1-13.6-7 -1.8-0.8-4.3-0.1-6.5-0.1 2.1 4 3.9 7.5 5.8 10.9 0.4 0.7 1.3 1.3 2 1.4 9 1.2 12.2 3.6 13.3 10.3 1.3 7.4-2.1 14.6-8.4 17.8 -7.3 3.7-17.8 2.8-23.4-2 -6-5.1-9.3-16.7-6.9-24.1 2.1-6.6 3.6-8.4 12-15 -3.8-4.3-8.5-6.9-14.2-7 -9.6-0.1-18.8 2-27 7.1 -9.3 5.9-13 14.4-10.8 25.3C14.1 52.3 18.1 59 24.7 64c6 4.5 13 3.9 17.7-1.6 4.4-5.1 3.9-12.5-1.1-17.7 -4.6-4.7-11.3-4.2-14.1 1.2 -0.6 1.2-1.3 3.1-0.8 4.1 0.8 1.7 2.5 2.9 3.9 4.4C31.2 53.2 32.2 51.8 33.3 50.1zM249.9 34c-1 0.1-2.2 0.1-3.3 0.4 -6.3 2.1-9.1 10.5-6 17.9 2.7 6.2 8.9 8.4 15.2 5.3 7.1-3.5 13-15.9 11.1-24.3 -0.8-3.4-2.6-6.6-4.5-9.5 -1.7-2.8-4.2-2.3-5.8 0.2 -1.6 2.6-2.5 5.6-3.8 8.4 5.2 2.8 8.6 6 9.2 11.5 0.4 3.5-1.5 7.3-4 7.4 -3.4 0.1-5.9-1.7-6.6-5.2C250.6 42.3 250.4 38.5 249.9 34zM77.5 34.4c-0.7 4.3-0.8 8.6-2.2 12.4 -0.7 1.9-3.8 4-5.9 4.1 -3 0.1-4-2.9-4.2-5.8 -0.2-4.7 2-8.4 5.8-10.6 3.1-1.8 3.5-3.6 1.8-6.2 -1.4-2.2-3.3-4.2-5-6.3 -2 1.9-4.6 3.6-5.8 5.9 -4.1 7.7-0.9 21.8 5.9 27.4 7.7 6.4 17.2 4 19.4-5.2 0.6-2.6 0.5-5.6 0-8.3C86.2 36.7 81.8 33.7 77.5 34.4zM197.5 29.8c0.8-6.8-0.3-12.5-3.6-17.4 -1-1.5-3.5-2.1-5.4-3.1 -0.6 1.9-1.9 3.8-1.6 5.5C188 21.1 192.1 25.5 197.5 29.8zM129.7 29.8c5.5-4.4 9.8-8.8 10.6-15.4 0.2-1.6-1.1-3.4-1.8-5.1 -1.8 0.9-4.2 1.4-5.1 2.9C130.1 17.3 128.8 23 129.7 29.8zM252.1 34.9c0.9 4.2 1.3 7.5 2.3 10.6 0.4 1.1 2.3 1.7 3.5 2.5 0.7-1.4 2.2-3 1.9-4.2C259 40.2 256.9 37.1 252.1 34.9zM74.9 34.9c-4.5 2.2-6.7 4.9-7.5 8.5 -0.3 1.3 1.1 3 1.8 4.5 1.3-0.9 3.2-1.6 3.7-2.8C73.9 42.2 74.2 39 74.9 34.9z" />
</svg>

