<svg xmlns="http://www.w3.org/2000/svg" viewBox="0 0 809.3 32.4">
    <style type="text/css">
    .st0 {
        fill: #C4D7A4;
    }
    </style>
    <path class="st0" d="M406 11.2c0.6-0.5 1.2-1.1 1.8-1.5 0.3-0.2 1.2-0.1 1.3 0.1 0.4 0.8 0.7 1.7 0.7 2.6 -0.1 0.9-0.4 2-1.5 2.1 -0.5-0.6-0.8-1.2-1.3-1.6 -0.1-0.1-0.7 0.4-1.1 0.7 1.7 0.8 1.8 1.2 0.8 2.6 1.2 0.6 1.4 1.4 0.3 2.5 1.5 0 2.8 0 4.1 0 -0.3-1.4-2.3-2.2-1-4.1 0.2 0.5 0.3 0.9 0.4 1.2 0.1 0 0.3 0 0.4 0 -0.1-0.6-0.1-1.1-0.2-1.7 -0.1-0.7-0.4-1.4-0.4-2.1 0.1-1 0.4-2.1 0.7-3.1 0.1-0.3 0.3-0.5 0.5-0.7 0.2 0.2 0.4 0.4 0.5 0.7 0.3 1 0.6 2 0.8 3.1 0.1 0.7-0.2 1.4-0.4 2.1 -0.1 0.5-0.2 1.1-0.2 1.6 0.2 0 0.3 0 0.5 0 0.1-0.3 0.2-0.6 0.4-1 1 1.7-0.4 2.7-1.2 4.1 1.6 0 3 0 4.5 0 -0.1-0.6-0.3-1.1-0.4-1.7 -0.1-0.5 0-1 0-1.5 0-0.5-0.1-0.9-0.1-1.4 -0.4 0.2-0.8 0.4-1.3 0.6 -0.1 0.1-0.2 0.2-0.4 0.4 -0.3-1.2-0.9-2.5 0.3-3.1 1.5-0.8 1.9 1 2.9 1.9 0.2-1.6 0.2-3.2 0.5-4.7 0.1-0.7 0.5-1.7 1.1-2 0.3-0.2 1.3 0.4 1.9 0.8 0.6 0.4 0.9 1.1 1.2 1.5 -0.9 0.4-1.8 0.8-2.5 1.1 0.4 1 0.7 1.6 0.8 2.3 0 0.3-0.6 0.6-1 0.8 1 1 0.9 1.1-0.5 2.1 -0.6 0.5-0.8 1.6-1.1 2.5 -0.6 1.8-1.1 3.7-1.8 5.5 -0.1 0.3-0.8 0.7-1.2 0.7 -6.9 0-13.9 0-20.8 0 -0.3 0-0.9-0.4-1-0.7 -0.9-2.5-1.8-5.1-2.7-7.8 -1.8-0.6-1.9-1.2-0.6-2.3 -1.6-0.6-1.7-1.2-0.3-2.5 -0.7-1.5-1-1.6-2.7-1.5 0.8-0.8 1.5-1.7 2.4-2.4 0.7-0.5 1.5-0.2 1.7 0.5 0.3 1.1 0.4 2.3 0.6 3.4 0.1 0.8 0 1.6 0 2.8 0.5-0.5 0.7-0.7 0.9-1 0.6-0.7 1.2-1.7 2.1-1.1 0.5 0.3 0.5 1.5 0.7 2.3 0 0.2-0.1 0.4-0.6 0.9 -0.2-0.3-0.3-0.7-0.5-0.9 -0.1-0.1-0.6-0.2-0.7-0.1 -0.2 0.2-0.5 0.5-0.5 0.8 0.1 1.2 0.2 2.5 0.3 3.9 1 0 2.4 0 3.9 0 -0.5-1.3-1.1-2.5-1.6-3.7 0.1-0.1 0.3-0.2 0.4-0.2 0.3 0.3 0.5 0.7 0.8 1 0.1 0 0.2-0.1 0.3-0.1 -0.1-0.6-0.3-1.1-0.4-1.7 -0.1-0.6-0.4-1.2-0.3-1.8 0.1-1.1 0.4-2.1 0.7-3.1 0.1-0.3 0.4-0.6 0.6-0.9 0.2 0.3 0.5 0.6 0.6 1 0.3 1 0.6 1.9 0.7 2.9 0.1 0.5 0 1.1-0.2 1.6 -0.2 0.7-0.4 1.3-0.7 2 0.1 0.1 0.3 0.1 0.4 0.2 0.3-0.4 0.5-0.7 0.8-1.1 0.9 1.6-0.8 2.6-1.2 4 1.4 0 2.6 0 3.8 0 -0.1-0.5-0.4-1-0.3-1.4 0.1-0.4 0.5-0.8 0.8-1.3 -1-1.3-0.8-1.7 0.8-2.3 -1.1-1.4-1.1-1.4-2.2 0.7 -1.7-0.6-2.3-3.5-0.9-4.6 0.3-0.3 1.1-0.2 1.5 0 0.6 0.3 1.1 0.9 2 1.3 -0.1-0.5-0.1-1.1-0.4-1.3 -1.6-1.1-0.8-2.4-0.4-3.6 0.2-0.7 0.8-1.2 0.9-1.9 0.2-0.8 0.2-1.6 0.2-2.4 0-0.3 0.2-0.6 0.3-0.9 0-0.1 0.4 0 0.5 0.1 0.1 0.2 0.3 0.6 0.2 0.7 -0.9 1.1 0.1 2 0.5 2.9 0.3 0.8 0.8 1.6 1.1 2.4 0.3 0.9 0.5 1.8-0.6 2.5 -0.4 0.2-0.4 1-0.6 1.6C405.7 11.2 405.9 11.2 406 11.2zM408 20.5c-0.1-0.1-0.1-0.2-0.2-0.3 -0.5 0.4-1.1 0.7-1.6 1.1 0.5 0.3 0.9 0.8 1.4 0.8 0.7 0 1.3-0.4 2-0.7 -0.2-0.3-0.4-0.6-0.7-0.8C408.7 20.4 408.3 20.5 408 20.5zM412.2 21.3c0.9 1.1 2 0.8 3 0.6 0.2 0 0.4-0.5 0.4-0.8 0-0.2-0.2-0.6-0.4-0.6C414.2 20.6 413 20 412.2 21.3zM401.6 22.3c0.6-0.2 1.1-0.4 1.6-0.7 0.1-0.1-0.1-0.9-0.3-0.9 -0.9-0.1-1.7-0.1-2.6 0 -0.1 0-0.3 0.8-0.2 0.9C400.5 21.9 401 22 401.6 22.3zM395.4 20.5c-0.2 0-0.5-0.1-0.7 0 -0.3 0.2-0.6 0.4-0.9 0.7 0.2 0.3 0.5 0.8 0.7 0.8 0.8 0 1.7-0.2 2.5-0.4 0 0 0-0.6-0.2-0.8 -0.1-0.2-0.4-0.2-0.6-0.3C396 20.5 395.7 20.5 395.4 20.5z" />
    <path class="st0" d="M405.3 26.7c1.4 1 2.1 2.2 1.6 3.3 -0.4 1-1.1 1.6-2.4 1.6 -1.3-0.1-1.9-0.8-2.1-1.9 -0.2-1.2 0.4-2.2 1.7-2.8 -0.5-0.1-0.9-0.1-1.4-0.1 -2.7 0-5.5 0-8.2 0 -0.8 0-1.7-0.1-1.5-1.2 0.1-0.3 0.8-0.8 1.2-0.8 7 0 13.9 0 20.9 0 0.7 0 1.4 0.1 1.1 0.9 -0.1 0.4-0.7 1-1.1 1 -2.1 0.1-4.2 0.1-6.4 0.1C407.7 26.7 406.5 26.7 405.3 26.7z" />
    <polygon class="st0" points="365.9 14.2 381 17.7 365.9 20.9 24.4 17.7 " />
    <polygon class="st0" points="443.4 14.2 428.3 17.7 443.4 20.9 782.1 17.7 " />
</svg>

