<svg xmlns="http://www.w3.org/2000/svg" viewBox="0 0 325.4 51.7">
    <style type="text/css">
    .svg-color {
        fill: #C4D7A4;
    }
    </style>
    <path class="svg-color" d="M173.8 28.3c0.8-0.6 1.5-1.5 2.5-1.9 1.6-0.6 3.3-1 5-1.3 13.4-1.9 26.6-0.1 39.4 3.9 13 4.1 25.8 8.9 38.7 13.2 15.3 5.1 31 8.5 47.2 6.4 4.5-0.6 9.1-2.1 13.3-3.9 3.1-1.3 4.2-4.7 3.4-7.4 -0.7-2.3-2.7-2.9-4.4-1.2 -1.9 1.8-0.9 3.4 1 5.3 -2.2 1.1-3.9 2.3-5.9 2.9 -8.6 2.6-17.1 1.1-25.4-1.4 -19.8-5.9-39.5-12.1-59.4-18 -13.6-4.1-27.5-6.8-41.7-4.6 -4.7 0.7-9.4 2.3-13.9 4 -2.9 1.2-4.1 4.7-2.8 7.1 0.6 1.2 2.1 2.1 3.4 2.5 0.6 0.2 2.1-0.9 2.4-1.7 0.5-1.9-0.9-2.7-2.5-3.2C174.1 29 174 28.8 173.8 28.3z" />
    <path class="svg-color" d="M151.8 28c-0.1 0.3-0.3 0.7-0.4 1 -0.2 0.1-0.6 0.1-0.7 0.3 -0.7 0.8-1.7 1.6-2 2.5 -0.2 0.5 0.8 1.8 1.4 2 1 0.2 2.4 0.1 3.2-0.5 2.8-2.1 2.1-7.1-1.6-9 -3.2-1.6-6.8-2.8-10.3-3.5 -14-2.8-27.8-0.9-41.3 3 -18.9 5.5-37.6 11.5-56.4 17.2 -8.5 2.6-17 5.3-26.1 4.5 -4.2-0.3-8.6-0.7-11.8-4.4 0.3-0.3 0.7-0.6 0.7-0.9 0.2-1.1 0.8-2.4 0.4-3.2 -0.4-0.9-1.9-1.8-2.8-1.6 -0.9 0.1-1.9 1.4-2.2 2.4 -0.3 1.1-0.2 2.8 0.4 3.6 1.5 1.8 3.3 3.7 5.4 4.7 5.5 2.6 11.5 3 17.4 3.1 15.6 0.4 30.5-3.4 45.1-8.5 14.8-5.1 29.2-11.2 44.6-14.4 10.5-2.1 21.1-3 31.7-0.8C148.4 26 150 27.2 151.8 28z" />
    <path class="svg-color" d="M163.5 24.6c3.7-14.1 3.5-18.2-0.9-21.4C157.6 6.1 158 15.7 163.5 24.6z" />
    <path class="svg-color" d="M165.4 24.1c0.4 0.3 0.8 0.5 1.1 0.8 2.3-1.8 4.8-3.3 6.6-5.4 0.8-0.9 0.3-3 0.4-4.5 -1.4 0.5-3.4 0.6-4.2 1.6C167.7 18.9 166.7 21.6 165.4 24.1z" />
    <path class="svg-color" d="M160.3 24.9c0.3-0.4 0.6-0.7 0.9-1.1 -1.8-2.4-3.4-4.9-5.6-7 -0.9-0.8-2.8-0.6-4.2-0.9 0.3 1.4 0.2 3.4 1.1 4.2C154.9 22 157.7 23.4 160.3 24.9z" />
    <path class="svg-color" d="M173.8 28.3c0.3 0.6 0.3 0.7 0.4 0.7 1.6 0.5 3 1.4 2.5 3.2 -0.2 0.8-1.8 1.9-2.4 1.7 -1.3-0.5-2.8-1.4-3.4-2.5 -1.3-2.4-0.1-6 2.8-7.1 4.5-1.8 9.1-3.3 13.9-4 14.3-2.2 28.1 0.6 41.7 4.6 19.8 5.9 39.5 12.1 59.4 18 8.3 2.5 16.8 4 25.4 1.4 1.9-0.6 3.7-1.8 5.9-2.9 -1.9-1.9-2.9-3.5-1-5.3 1.7-1.6 3.8-1 4.4 1.2 0.8 2.7-0.3 6-3.4 7.4 -4.2 1.8-8.8 3.3-13.3 3.9 -16.3 2.1-31.9-1.4-47.2-6.4 -12.9-4.3-25.7-9.1-38.7-13.2 -12.8-4-25.9-5.8-39.4-3.9 -1.7 0.2-3.4 0.7-5 1.3C175.3 26.7 174.5 27.7 173.8 28.3z" />
    <path class="svg-color" d="M151.8 28c-1.7-0.8-3.4-2-5.2-2.4 -10.6-2.2-21.2-1.3-31.7 0.8C99.5 29.6 85 35.7 70.3 40.8c-14.6 5-29.5 8.8-45.1 8.5 -6-0.1-12-0.5-17.4-3.1 -2.1-1-3.9-2.9-5.4-4.7 -0.7-0.8-0.7-2.5-0.4-3.6 0.3-1 1.3-2.3 2.2-2.4 0.9-0.1 2.3 0.8 2.8 1.6 0.4 0.8-0.2 2.1-0.4 3.2C6.4 40.5 6 40.7 5.7 41c3.2 3.7 7.6 4.1 11.8 4.4 9 0.7 17.6-2 26.1-4.5 18.8-5.7 37.6-11.7 56.4-17.2 13.5-3.9 27.3-5.8 41.3-3 3.5 0.7 7.1 1.9 10.3 3.5 3.7 1.9 4.4 6.8 1.6 9 -0.8 0.6-2.2 0.7-3.2 0.5 -0.6-0.1-1.5-1.5-1.4-2 0.3-1 1.3-1.7 2-2.5 0.2-0.2 0.5-0.2 0.7-0.3C151.5 28.7 151.6 28.3 151.8 28z" />
    <path class="svg-color" d="M163.5 24.6c-5.5-9-5.9-18.5-0.9-21.4C167 6.4 167.2 10.6 163.5 24.6z" />
    <path class="svg-color" d="M165.4 24.1c1.3-2.5 2.3-5.3 4-7.6 0.7-1 2.7-1.1 4.2-1.6 -0.1 1.5 0.4 3.6-0.4 4.5 -1.9 2.1-4.4 3.7-6.6 5.4C166.2 24.6 165.8 24.4 165.4 24.1z" />
    <path class="svg-color" d="M160.3 24.9c-2.6-1.5-5.4-2.9-7.7-4.8 -0.9-0.7-0.8-2.7-1.1-4.2 1.4 0.3 3.4 0 4.2 0.9 2.1 2.1 3.7 4.6 5.6 7C160.9 24.2 160.6 24.6 160.3 24.9z" />
</svg>

