<?xml version="1.0" encoding="utf-8"?>
<!-- Generator: Adobe Illustrator 19.1.0, SVG Export Plug-In . SVG Version: 6.00 Build 0)  -->
<svg version="1.0" id="Layer_1" xmlns="http://www.w3.org/2000/svg" xmlns:xlink="http://www.w3.org/1999/xlink" x="0px" y="0px"
	 viewBox="0 0 612 612" style="enable-background:new 0 0 612 612;" xml:space="preserve">
<style type="text/css">
	.st0{fill:#231F20;}
	.st1{fill:#FFFFFF;}
	.st2{clip-path:url(#SVGID_2_);}
	.st3{fill:#EC1C24;}
	.st4{fill:#1C439B;}
	.st5{clip-path:url(#SVGID_4_);fill:#EC1C24;}
</style>
<circle class="st0" cx="305.8" cy="306.4" r="298.7"/>
<circle class="st1" cx="305.8" cy="306.4" r="199.8"/>
<g>
	<g>
		<defs>
			<circle id="SVGID_1_" cx="305.8" cy="306.4" r="189.8"/>
		</defs>
		<clipPath id="SVGID_2_">
			<use xlink:href="#SVGID_1_"  style="overflow:visible;"/>
		</clipPath>
		<g class="st2">
			<g>
				<polygon class="st3" points="157,152.3 457.7,459.5 311.9,517.6 146.6,477.6 88.6,284 				"/>
				<rect x="105.3" y="150.2" class="st1" width="26.8" height="379.6"/>
				<rect x="164.1" y="150.2" class="st1" width="26.8" height="379.6"/>
				<rect x="223" y="150.2" class="st1" width="26.8" height="379.6"/>
				<rect x="281.9" y="150.2" class="st1" width="26.8" height="379.6"/>
				<rect x="340.7" y="150.2" class="st1" width="26.8" height="379.6"/>
				<rect x="399.6" y="150.2" class="st1" width="26.8" height="379.6"/>
			</g>
			<polygon class="st4" points="146.7,147.3 480.6,482.6 551.9,255.8 427.8,84.5 230.9,70.2 			"/>
		</g>
	</g>
	<g>
		<g>
			<path class="st1" d="M198.5,283.9c-0.1,0.2-0.1,0.4-0.2,0.5c-0.2,0.3-0.5,0.6-0.7,1c-6.3,8.3-11,17.5-12.2,28.1
				c-0.9,7.4-1.6,14.8-1.8,22.2c-0.3,12.3-0.1,24.7,0,37c0,1.4-0.2,2.4-1.2,3.4c-2.8,2.9-2.4,6.2,0.7,8.8c0.6,0.5,1,1.6,1,2.4
				c0,3.7-0.2,7.4-0.2,11.2c0,3.7-0.7,7.4-0.4,11.1c0.6,5.7,3.8,9.4,9.4,10.1c4.5,0.6,9.1,0.8,13.6,0.3c7.6-0.8,9.9-3.8,9.7-11.5
				c-0.1-4.3,0.2-8.7-0.1-13c-0.1-2.4-0.1-4.7-0.2-7.3c1.1,0.5,1.9,1,2.8,1.3c3.2,1.1,6.4,2.2,9.6,3.3c1.2,0.4,2.4,0.6,3.5,1.2
				c2.6,1.5,5.5,2.2,8.1,0.8c2.7-1.4,5.4-1.3,8.2-1.3c2.7,0,5.4,0.1,8.1,0.1c20.2,0.1,40.4,0.3,60.6,0.3c19,0,37.9-0.2,56.9-0.4
				c1.8,0,3.1,0.3,4.5,1.5c2.7,2.2,5.6,2.2,7.9,0c3.2-3.1,7.7-2.6,11.4-5c0,1.4,0,2.2,0.1,3c0.1,5.7,0.1,11.5,0.4,17.2
				c0.3,5.9,2.6,8.8,8.4,9.5c3.9,0.5,7.9,0.7,11.7,0.2c7.2-0.8,10-3.5,11.2-9.4c0.3-1.3,0.5-2.7,0.5-4.1c0.2-7,0.2-13.9,0.4-20.9
				c0-0.7,0.5-1.7,1-2.1c2.4-2.1,3.3-4.8,1.2-7.3c-2.3-2.7-2.5-5.4-1.9-8.5c0.2-1.2,0.3-2.5,0.3-3.7c0.6-12.5,0.6-25.1-0.2-37.6
				c-0.7-11.2-3.4-21.7-9.6-31.2c-2.4-3.7-4.9-7.4-7.5-11.1c0.7-0.9,1.6-1.8,2.3-2.8c1-1.4,2.2-1.9,3.9-2c4.3-0.3,8.6-1,12.9-1.5
				c1.9-0.2,3-1.4,3-3.3c0.1-3.1,0.1-6.3-0.2-9.5c-0.2-2.5-1.2-3.2-3.7-3.2c-6.3-0.1-12.2,1.6-18,3.8c-1.5,0.6-2.3,1.7-2,3.3
				c0.3,1.9,0.3,4,1.1,5.7c1.1,2.5,0,3.6-1.8,4.8c-4.6-18.5-9.1-36.9-13.6-55.3c-0.5-2.2-1.4-4.1-3.4-5.2c-3.1-1.7-6.1-3.6-9.4-4.9
				c-12.1-4.7-24.9-6.5-37.7-7.8c-22.3-2.3-44.5-2.2-66.8-1.5c-13,0.4-24.5,1.4-37.3,3.9c-6.9,1.3-13.7,2.9-19.9,6.3
				c-2.9,1.6-5.7,3.3-6.6,6.9c-3.7,15.1-8.9,30.2-12.7,45.2c-1,4.1-2.1,8.2-3.1,12.4c-1-1-1.8-1.7-2.2-2c0.5-3.2,0.9-5.9,1.2-8.6
				c0.2-1.4-0.5-2.4-1.8-2.9c-6.1-2.3-12.2-4-18.7-4c-2,0-3.3,0.9-3.3,2.8c-0.1,3.4,0,6.8,0.3,10.3c0.1,1.7,1.2,2.7,3,2.9
				c4.7,0.5,9.3,1,14,1.6c0.7,0.1,1.5,0.3,2,0.7C196.3,281.3,197.4,282.6,198.5,283.9z"/>
			<path d="M198.5,283.9c-1.1-1.3-2.2-2.6-3.4-3.8c-0.5-0.5-1.3-0.7-2-0.7c-4.6-0.6-9.3-1.1-14-1.6c-1.8-0.2-2.9-1.2-3-2.9
				c-0.2-3.4-0.3-6.8-0.3-10.3c0-1.9,1.4-2.8,3.3-2.8c6.5,0,12.7,1.7,18.7,4c1.3,0.5,2,1.6,1.8,2.9c-0.3,2.7-0.8,5.4-1.2,8.6
				c0.4,0.3,1.1,1.1,2.2,2c1.1-4.3,2.1-8.3,3.1-12.4c3.8-15.1,9-30.2,12.7-45.2c0.9-3.6,3.7-5.3,6.6-6.9c6.2-3.3,13-5,19.9-6.3
				c12.8-2.4,24.3-3.5,37.3-3.9c22.3-0.7,44.5-0.7,66.8,1.5c12.8,1.3,25.5,3.1,37.7,7.8c3.3,1.3,6.3,3.2,9.4,4.9
				c2,1.1,2.8,3,3.4,5.2c4.5,18.4,9,36.8,13.6,55.3c1.9-1.2,3-2.3,1.8-4.8c-0.8-1.7-0.8-3.8-1.1-5.7c-0.3-1.7,0.5-2.8,2-3.3
				c5.8-2.1,11.7-3.9,18-3.8c2.6,0,3.5,0.7,3.7,3.2c0.3,3.1,0.2,6.3,0.2,9.5c0,1.9-1.1,3-3,3.3c-4.3,0.5-8.6,1.2-12.9,1.5
				c-1.8,0.1-3,0.6-3.9,2c-0.7,1-1.5,1.9-2.3,2.8c2.5,3.8,5,7.4,7.5,11.1c6.2,9.5,8.8,20,9.6,31.2c0.8,12.6,0.8,25.1,0.2,37.6
				c-0.1,1.2-0.1,2.5-0.3,3.7c-0.6,3.1-0.4,5.7,1.9,8.5c2.1,2.5,1.2,5.2-1.2,7.3c-0.6,0.5-1,1.4-1,2.1c-0.2,7-0.3,13.9-0.4,20.9
				c0,1.4-0.2,2.7-0.5,4.1c-1.2,5.9-4.1,8.6-11.2,9.4c-3.8,0.4-7.9,0.3-11.7-0.2c-5.8-0.8-8.1-3.6-8.4-9.5
				c-0.2-5.7-0.3-11.5-0.4-17.2c0-0.8,0-1.6-0.1-3c-3.7,2.4-8.2,1.9-11.4,5c-2.3,2.2-5.2,2.2-7.9,0c-1.4-1.1-2.7-1.5-4.5-1.5
				c-19,0.2-37.9,0.4-56.9,0.4c-20.2,0-40.4-0.2-60.6-0.3c-2.7,0-5.4-0.1-8.1-0.1c-2.8,0-5.5-0.1-8.2,1.3c-2.6,1.4-5.5,0.6-8.1-0.8
				c-1.1-0.6-2.3-0.8-3.5-1.2c-3.2-1.1-6.4-2.2-9.6-3.3c-0.9-0.3-1.7-0.8-2.8-1.3c0.1,2.6,0,5,0.2,7.3c0.3,4.3,0,8.7,0.1,13
				c0.2,7.6-2.2,10.7-9.7,11.5c-4.5,0.5-9.1,0.3-13.6-0.3c-5.6-0.7-8.8-4.4-9.4-10.1c-0.4-3.7,0.4-7.4,0.4-11.1
				c0-3.7,0.2-7.4,0.2-11.2c0-0.8-0.4-1.9-1-2.4c-3.1-2.5-3.5-5.9-0.7-8.8c1-1,1.2-2,1.2-3.4c-0.1-12.3-0.3-24.7,0-37
				c0.2-7.4,0.9-14.8,1.8-22.2c1.2-10.6,5.9-19.7,12.2-28.1c0.2-0.3,0.5-0.6,0.7-1C198.4,284.3,198.4,284.1,198.5,283.9z
				 M419.9,364.5c-0.3-2.7-2.2-2.4-3.8-2.5c-7.1-0.1-14.2-0.3-21.3-0.3c-2.2,0-3.2-0.9-3.6-3.1c-1.1-5-2.4-9.9-3.6-14.9
				c-1-3.9-3.2-7.1-6.4-9.5c-8.8-6.9-19-10.2-29.8-11c-7.3-0.5-14.6-0.2-21.9-0.1c-19.2,0-38.5,0.1-57.7,0.2
				c-11,0.1-21.4,2.8-30.8,8.3c-5.4,3.1-10,7.1-12.1,13.1c-1.6,4.6-2.9,9.2-4.1,13.9c-0.9,3.5-0.9,3.9-4.5,4
				c-7.3,0.3-14.6,0.5-21.9,0.7c-1.8,0-3.4,0.2-4.4,2.7c-1.8-4.6-3.8-8.6-4.9-12.7c-1-3.7-0.9-7.7-1.2-11.5c-0.3-2.5-0.5-5-0.8-7.5
				c-0.6,0.6-0.8,1.2-0.8,1.8c-0.1,6.1-0.4,12.2-0.3,18.4c0.1,5.1,1.9,9.8,5.5,13.6c1.6,1.7,2.5,3.4,2,5.9c-0.3,1.5-0.7,1.9-2.1,1.9
				c-1.6,0-3.2,0.1-4.7,0.4c-2.1,0.4-3.4,1.8-3.5,3.5c0,1.7,1.5,3.7,3.3,4.1c1.3,0.3,2.6,0.4,3.9,0.4c11.9,0,23.9-0.1,35.8-0.2
				c1.7,0,3.7-0.6,4.8,0.1c1.1,0.7,1.3,2.9,1.9,4.4c0.1,0.2,0.1,0.4,0.2,0.6c1,2.4,2.4,3.5,4.6,3.5c2.1-0.1,3.3-1.2,3.9-3.8
				c0.4-1.6,0.5-3.2,0.8-4.9c0.7,0,1.3,0,1.8,0c18.8-0.1,37.6-0.3,56.5-0.3c24.2,0,48.4,0.1,72.6,0.2c4.2,0,4.2,0.1,4.7,4.4
				c0.1,0.7,0.2,1.4,0.3,2c0.4,2.3,1.5,3.1,4.1,3.2c2.4,0,3.3-0.6,3.7-2.8c0.3-1.5,0.6-3.1,0.8-4.7c0.2-1.5,0.9-2.1,2.5-2
				c4,0.1,8,0.1,12,0c8.3-0.1,16.7-0.2,25-0.4c2.9-0.1,4.8-2.2,4.7-4.9c-0.1-2.6-1.8-4-5-4c-1.8,0-3.5,0-5.3,0
				c-0.3-2.3,0-3.9,1.5-5.5c3.2-3.5,5.6-7.5,5.7-12.4c0.1-5.7-0.2-11.4-0.5-17.1c-0.1-1.8-0.5-3.6-0.8-5.3c-0.3,0-0.5,0-0.8,0
				c-0.2,3.3-0.5,6.7-0.5,10C425,351.3,424,358,419.9,364.5z M228.8,280.3c0,0.2,0,0.3,0,0.3c0.3,0.4,0.7,0.7,1,1
				c4.7,4.4,9.1,9.2,11.6,15.2c1.5,3.6,2.3,7.5,3.5,11.3c1.5,4.8,2.7,5.7,7.6,5.4c10.7-0.6,21.4-1.6,32.1-1.9
				c11.8-0.4,23.7-0.5,35.5-0.4c6.7,0.1,13.5,0.8,20.2,1.3c8.4,0.6,16.8,1.3,25.2,1.9c0.6,0,1.5-0.1,1.9-0.5c1.3-1.6,2.6-3.2,3.4-5
				c1.4-3.2,2.2-6.8,3.7-10c3.3-6.9,6.3-14.1,13-19.3C334.3,270.8,281.5,270.2,228.8,280.3z M399.7,263.8c0,0-0.1,0-0.1,0
				c0-1.6,0.2-3.2-0.1-4.7c-2.7-10.2-5.5-20.3-8.2-30.4c-1-3.6-3.3-5.9-6.7-6.8c-3.7-1-7.6-2-11.4-2c-44.1-0.2-86.9-0.2-131-0.1
				c-4.1,0-8.3,1-12.3,2c-3.9,0.9-6.7,3.5-7.7,7.5c-1.9,7.4-5.2,14.8-6.7,22.4c-0.9,4.5-1.4,9.2-1.5,13.9c-0.1,4.8,2.4,6.7,7.2,6.4
				c2.6-0.2,5.2-0.6,7.7-1.1c13.8-2.7,27.8-4.2,41.9-5.1c18.7-1.2,37.5-1.2,56.2-0.6c17,0.6,33.9,1.9,50.7,4.6
				c5.2,0.9,10.5,2,15.7,2.5c4.8,0.5,6.5-1.5,6.4-6.3C399.7,265.2,399.7,264.5,399.7,263.8z M382.8,216.4c-0.8-0.3-1-0.4-1.2-0.5
				c-7.9-3.2-16.2-4.8-24.5-6c-14.1-2.1-28.3-3-42.5-3.2c-24.4-0.4-47.4,0-71.4,4.5c-6,1.1-12,2.5-18.2,5.3
				C278.3,216.4,329.5,216.4,382.8,216.4z M416.2,296.7c-0.6-3.5-2.5-5.9-5-7.8c-5-3.9-10.9-5.6-17-6.6c-1.1-0.2-2.5,0.3-3.4,1
				c-6,4.3-10.5,9.9-13.7,16.5c-2.2,4.4-3.5,9.1-3.5,14.2c1.6-3.1,3-6.3,4.9-9.2c7.3-11.5,18.9-15.1,31.7-10.2
				C412.1,295.3,414,295.9,416.2,296.7z M242,312.5c-0.2-1.2-0.2-2.5-0.5-3.7c-2.1-10.7-8.4-18.7-16.4-25.6
				c-2.1-1.8-4.1-2.5-6.8-1.8c-6,1.5-11.9,3.2-16.4,7.9c-1.6,1.7-2.9,3.5-3,6.2c2.3-0.8,4.4-1.4,6.4-2.3c7.9-3.6,15.5-2.8,22.8,1.9
				C234.7,299.3,238.7,305.5,242,312.5z M381.8,316.2c0.2,11.2,9.2,19.9,20.3,19.9c10.9,0,19.7-8.9,19.4-19.9
				c-0.2-10.9-9.5-19.9-20.5-19.9C390.3,296.3,381.6,305.4,381.8,316.2z M215.7,336c11,0,19.7-8.8,19.5-19.7
				c-0.2-10.8-9.5-19.9-20.3-19.9c-10.8,0-19.7,9-19.5,19.7C195.6,327.2,204.5,336,215.7,336z M396.2,353.4c0.1,3.4,2.9,6.1,6.3,6.1
				c3.4,0,6.2-2.9,6.1-6.3c-0.1-3.4-2.9-6.1-6.4-6.1C398.7,347.1,396.1,349.8,396.2,353.4z M221.9,352.6c-0.1-3.3-2.8-6-6.1-6.1
				c-3.1-0.1-6,2.8-6,6c0,3.2,2.9,6.1,6.2,6.1C219.2,358.6,222,355.8,221.9,352.6z"/>
			<path class="st1" d="M419.9,364.5c4.2-6.5,5.2-13.2,5.2-20.3c0-3.3,0.3-6.7,0.5-10c0.3,0,0.5,0,0.8,0c0.3,1.8,0.8,3.6,0.8,5.3
				c0.3,5.7,0.5,11.4,0.5,17.1c-0.1,4.9-2.5,8.9-5.7,12.4c-1.5,1.6-1.7,3.3-1.5,5.5c1.8,0,3.6,0,5.3,0c3.2,0,4.9,1.4,5,4
				c0.1,2.7-1.7,4.8-4.7,4.9c-8.3,0.2-16.7,0.3-25,0.4c-4,0.1-8,0.1-12,0c-1.6,0-2.3,0.6-2.5,2c-0.2,1.6-0.5,3.1-0.8,4.7
				c-0.4,2.2-1.3,2.9-3.7,2.8c-2.6,0-3.7-0.9-4.1-3.2c-0.1-0.7-0.3-1.4-0.3-2c-0.4-4.3-0.4-4.3-4.7-4.4c-24.2-0.1-48.4-0.2-72.6-0.2
				c-18.8,0-37.7,0.2-56.5,0.3c-0.5,0-1.1,0-1.8,0c-0.3,1.7-0.5,3.3-0.8,4.9c-0.6,2.6-1.8,3.8-3.9,3.8c-2.2,0.1-3.7-1-4.6-3.5
				c-0.1-0.2-0.1-0.4-0.2-0.6c-0.6-1.5-0.8-3.7-1.9-4.4c-1.2-0.8-3.2-0.2-4.8-0.1c-11.9,0.1-23.9,0.1-35.8,0.2
				c-1.3,0-2.6-0.1-3.9-0.4c-1.8-0.5-3.3-2.5-3.3-4.1c0-1.7,1.3-3.1,3.5-3.5c1.5-0.3,3.1-0.4,4.7-0.4c1.4,0,1.8-0.3,2.1-1.9
				c0.5-2.5-0.4-4.2-2-5.9c-3.6-3.8-5.4-8.5-5.5-13.6c-0.1-6.1,0.2-12.2,0.3-18.4c0-0.6,0.2-1.2,0.8-1.8c0.3,2.5,0.6,5,0.8,7.5
				c0.4,3.8,0.3,7.8,1.2,11.5c1.1,4.2,3.1,8.1,4.9,12.7c1-2.5,2.6-2.7,4.4-2.7c7.3-0.2,14.6-0.4,21.9-0.7c3.6-0.1,3.6-0.5,4.5-4
				c1.2-4.7,2.5-9.4,4.1-13.9c2.1-6.1,6.7-10,12.1-13.1c9.5-5.5,19.8-8.2,30.8-8.3c19.2-0.1,38.5-0.2,57.7-0.2
				c7.3,0,14.6-0.4,21.9,0.1c10.8,0.8,21,4.1,29.8,11c3.2,2.5,5.4,5.6,6.4,9.5c1.2,5,2.5,9.9,3.6,14.9c0.5,2.1,1.4,3.1,3.6,3.1
				c7.1,0,14.2,0.1,21.3,0.3C417.7,362,419.5,361.8,419.9,364.5z M197.1,375.4c1.2,0,2.3,0,3.3,0c9.5,0.2,19,0.3,28.6,0.5
				c3,0.1,3,0.1,3.4-2.9c0.2-1.6,0.3-3.2,0.5-4.7c0.4-2.8,1.5-3.5,4.8-3.3c2.2,0.2,3.3,1.4,3.3,3.9c0,2-0.1,4-0.2,6
				c-0.1,1.2,0.3,1.8,1.6,1.8c2.6,0,5.1,0.2,7.7,0.2c15.5,0,31,0.1,46.6,0c22.5-0.1,45-0.2,67.5-0.3c3.8,0,7.6-0.1,11.4-0.1
				c1.8,0,2.6-0.6,2.5-2.5c-0.1-1.6-0.1-3.3-0.1-5c0-2.2,0.8-2.8,3.4-3.1c2.5-0.2,3.9,0.6,4.3,2.6c0.4,1.7,0.7,3.4,1,5.1
				c0.3,1.4,1,2.2,2.5,2c2.1-0.2,4.3-0.2,6.4-0.2c6.6,0,13.2,0,20.1,0c-0.1-2.5-0.2-4.6-0.1-6.7c0.1-1.7-0.5-2.3-2.2-2.2
				c-7.5,0.1-15,0-22.6,0.1c-1.3,0-2.2-0.3-3.2-1.3c-4-4.2-9.9-3.6-12.6,1.3c-10.3,0-20.6,0-31,0c-32.6,0-65.3,0-97.9,0
				c-1.1,0-2,0.1-2.8-1.1c-3.4-4.8-9-4.7-12.4-0.1c-0.6,0.7-1.7,1.4-2.6,1.5c-3.4,0.3-6.9,0.4-10.3,0.6c-6.1,0.3-12.1,0.6-18.1,1
				c-0.7,0-1.7,0.6-1.8,1.1C197.3,371.4,197.2,373.4,197.1,375.4z M315.2,337.7c0.7-1.7,1.8-2.1,3.4-2.1c19,0,37.9,0,56.9-0.1
				c1,0,1.9-0.2,2.9-0.3c0-0.2,0.1-0.4,0.1-0.6c-1.9-1.6-3.8-3.1-6.4-3.3c-3.2-0.2-6.5-0.2-9.7-0.2c-14.7-0.1-29.4-0.1-44.1-0.1
				c-1.4,0-2.5-0.3-3-1.9c17,0,33.8,0,50.6,0c0-0.2,0.1-0.4,0.1-0.5c-1.1-0.4-2.3-0.9-3.4-1.3c-5.9-2.2-12-2.4-18.2-2.4
				c-22.3,0-44.6-0.1-66.9-0.1c-7.1,0-14.2-0.2-20.9,2.5c-1.2,0.5-2.5,0.9-3.8,1.4c0.1,0.2,0.1,0.4,0.2,0.6c16.4,0,32.7,0,49.1,0
				c-1.2,1.8-1.2,1.8-3,1.8c-17.2,0.1-34.3,0.2-51.5,0.3c-3.1,0-5,1.9-7.6,3.9c1.2,0.1,1.7,0.2,2.2,0.2c3.5,0,7,0.1,10.6,0.1
				c15.2,0,30.4,0,45.5,0c1.7,0,3.1,0.1,3.9,1.9c-0.2,0-0.4,0.1-0.5,0.1c-21.3,0.1-42.6,0.2-63.9,0.3c-0.7,0-1.6-0.3-2,0.1
				c-1.1,0.9-2.6,2-2.7,3.2c-0.2,1.6,1.7,0.9,2.6,0.9c11,0.2,21.9,0.3,32.9,0.3c6.7,0,13.4,0,20.1,0c29-0.1,57.9-0.1,86.9-0.2
				c2.6,0,5.2,0,7.9-0.2c0.4,0,1.3-1,1.2-1.2c-0.8-1.4-1.4-3-3.5-3c-10.6,0-21.2-0.2-31.9-0.2C337.9,337.7,326.7,337.7,315.2,337.7z
				 M309.9,350.4c0-0.1,0-0.2,0-0.2c2.3,0,4.6,0,6.8,0c22.6-0.2,45.2-0.3,67.8-0.5c2.2,0,3-1.3,1.7-3.1c-0.4-0.6-1.6-1-2.4-1.1
				c-9.5-0.2-19-0.3-28.5-0.4c-12.2-0.1-24.4-0.1-36.6-0.1c-25.7,0.1-51.3,0.1-76.9,0.2c-3.4,0-6.9,0.1-10.3,0.1
				c-1.8,0-2,1.4-2.1,2.7c-0.1,1.5,0.9,1.6,2,1.6c1.4,0,2.8,0.2,4.1,0.3c12.7,0.1,25.4,0.3,38.1,0.4
				C285.6,350.4,297.8,350.4,309.9,350.4z M308.3,353C308.3,353,308.3,352.9,308.3,353c-11.5-0.1-23-0.1-34.6-0.1
				c-15,0.1-29.9,0.2-44.9,0.3c-1.4,0-2.1,0.4-2,1.9c0.1,1.4,1,1.6,2.1,1.6c9.8,0.1,19.6,0.3,29.4,0.3c30.8,0,61.5,0,92.3,0
				c12.1,0,24.3-0.2,36.4-0.3c1.2,0,2.1-0.2,2-1.6c-0.1-1.4-0.7-1.8-2.1-1.8c-10.6,0-21.2-0.2-31.9-0.3
				C339.5,352.9,323.9,353,308.3,353z M309.3,363.7C309.3,363.7,309.3,363.7,309.3,363.7c19.7,0,39.4,0.1,59.2,0
				c1.8,0,3.6-0.2,5.3-0.6c0.6-0.1,1.1-1,1.6-1.6c-0.6-0.4-1.2-1-1.9-1.3c-0.6-0.2-1.4-0.2-2-0.2c-9.6-0.1-19.2-0.3-28.8-0.3
				c-31.8,0-63.6,0.2-95.3,0.3c-0.8,0-1.7,0-2.4,0.3c-0.6,0.2-1.1,0.8-1.6,1.3c0.5,0.5,0.9,1.4,1.5,1.5c1.3,0.4,2.7,0.6,4.1,0.6
				C269.1,363.7,289.2,363.7,309.3,363.7z"/>
			<path class="st1" d="M228.8,280.3c52.6-10.1,105.4-9.5,158.8-0.6c-6.7,5.2-9.7,12.4-13,19.3c-1.5,3.2-2.3,6.7-3.7,10
				c-0.8,1.8-2.2,3.4-3.4,5c-0.3,0.4-1.2,0.5-1.9,0.5c-8.4-0.6-16.8-1.3-25.2-1.9c-6.7-0.5-13.5-1.2-20.2-1.3
				c-11.8-0.1-23.7,0-35.5,0.4c-10.7,0.4-21.4,1.3-32.1,1.9c-4.9,0.3-6.1-0.6-7.6-5.4c-1.2-3.8-2-7.7-3.5-11.3
				c-2.5-6-6.9-10.7-11.6-15.2c-0.4-0.3-0.7-0.7-1-1C228.8,280.6,228.8,280.5,228.8,280.3z"/>
			<path class="st1" d="M399.7,263.8c0,0.7,0,1.4,0,2.1c0.1,4.8-1.6,6.7-6.4,6.3c-5.3-0.5-10.5-1.6-15.7-2.5
				c-16.8-2.7-33.7-4.1-50.7-4.6c-18.8-0.6-37.5-0.6-56.2,0.6c-14.1,0.9-28.1,2.4-41.9,5.1c-2.6,0.5-5.1,0.9-7.7,1.1
				c-4.8,0.3-7.2-1.6-7.2-6.4c0.1-4.7,0.6-9.3,1.5-13.9c1.5-7.5,4.9-14.9,6.7-22.4c1-4,3.8-6.6,7.7-7.5c4-1,8.2-2,12.3-2
				c44.1-0.1,86.9-0.1,131,0.1c3.8,0,7.6,1,11.4,2c3.4,0.9,5.7,3.2,6.7,6.8c2.7,10.2,5.5,20.3,8.2,30.4c0.4,1.5,0.1,3.2,0.1,4.7
				C399.6,263.8,399.7,263.8,399.7,263.8z M306.2,222.9C306.2,222.9,306.2,222.9,306.2,222.9c-21.9-0.1-42.4-0.1-64.4,0
				c-3.4,0-6.8,0.9-10.1,1.8c-2.8,0.8-5.1,2.4-6.1,5.3c-3.4,10.4-7.3,21.1-8,32.1c-0.4,5.6,1.5,7.2,7.2,6.7c0.3,0,0.5,0,0.8-0.1
				c5.8-0.8,11.5-2,17.3-2.5c15.8-1.4,31.7-3,47.5-3.5c21.6-0.7,43.3-0.3,64.9,1.9c9.7,1,19.3,2.4,29,3.6c2.5,0.3,5.1,0.9,7.6,0.8
				c3.5,0,5-1.8,4.9-5.4c0-1.3-0.1-2.6-0.3-3.9c-1.7-10.2-5.1-19.9-8.4-29.7c-0.8-2.5-2.4-4.4-4.9-5.1c-3.6-1-7.3-2.1-10.9-2.1
				C350.3,222.8,328.3,222.9,306.2,222.9z"/>
			<path class="st1" d="M382.8,216.4c-53.3,0-104.5,0-157.8,0c6.2-2.8,12.1-4.2,18.2-5.3c24-4.4,47-4.9,71.4-4.5
				c14.2,0.2,28.4,1.1,42.5,3.2c8.3,1.2,16.6,2.8,24.5,6C381.8,215.9,382,216,382.8,216.4z"/>
			<path class="st1" d="M416.2,296.7c-2.2-0.8-4.1-1.4-6-2.1c-12.8-4.9-24.4-1.3-31.7,10.2c-1.8,2.9-3.2,6.1-4.9,9.2
				c0-5,1.3-9.8,3.5-14.2c3.3-6.6,7.8-12.2,13.7-16.5c0.9-0.7,2.3-1.1,3.4-1c6.1,1,12,2.7,17,6.6
				C413.7,290.8,415.5,293.2,416.2,296.7z"/>
			<path class="st1" d="M242,312.5c-3.2-7.1-7.3-13.3-13.9-17.5c-7.4-4.7-14.9-5.5-22.8-1.9c-2,0.9-4.1,1.5-6.4,2.3
				c0.2-2.7,1.4-4.6,3-6.2c4.5-4.6,10.4-6.3,16.4-7.9c2.7-0.7,4.7,0,6.8,1.8c8.1,6.9,14.3,15,16.4,25.6
				C241.7,310.1,241.8,311.3,242,312.5z"/>
			<path class="st1" d="M381.8,316.2c-0.2-10.8,8.5-19.8,19.3-19.8c11,0,20.3,9,20.5,19.9c0.2,10.9-8.5,19.9-19.4,19.9
				C391,336.1,382,327.3,381.8,316.2z M419.3,316.3c-0.2-9.9-8.1-17.6-18.1-17.7c-9.6,0-17.5,8-17.3,17.6
				c0.2,9.8,8.2,17.6,18.2,17.7C411.8,334,419.4,326.1,419.3,316.3z"/>
			<path class="st1" d="M215.7,336c-11.1,0-20.1-8.8-20.3-20c-0.2-10.7,8.7-19.7,19.5-19.7c10.8,0,20.1,9.1,20.3,19.9
				C235.4,327.2,226.7,336,215.7,336z M232.9,316.4c-0.2-9.9-8.1-17.8-17.8-17.8c-9.9,0-17.7,7.7-17.6,17.3
				c0.2,10.2,8,18.1,17.9,18.1C225.4,334,233.1,326.2,232.9,316.4z"/>
			<path class="st1" d="M396.2,353.4c-0.1-3.6,2.5-6.3,6.1-6.3c3.5,0,6.3,2.7,6.4,6.1c0.1,3.4-2.7,6.4-6.1,6.3
				C399.2,359.5,396.3,356.8,396.2,353.4z M397.9,353.3c0,2.5,2.1,4.6,4.7,4.6c2.4,0,4.5-2.2,4.4-4.5c-0.1-2.6-2.1-4.6-4.6-4.6
				C399.8,348.8,397.8,350.8,397.9,353.3z"/>
			<path class="st1" d="M221.9,352.6c0.1,3.3-2.7,6-6,6c-3.3,0-6.2-2.9-6.2-6.1c0-3.2,2.9-6.1,6-6
				C219.1,346.5,221.9,349.3,221.9,352.6z M211.5,352.4c0,2.6,2,4.7,4.5,4.6c2.5-0.1,4.4-2,4.4-4.5c0-2.5-2.1-4.7-4.6-4.6
				C213.3,348,211.5,349.9,211.5,352.4z"/>
			<path d="M197.1,375.4c0.2-2,0.3-4,0.7-5.9c0.1-0.5,1.2-1.1,1.8-1.1c6-0.4,12.1-0.7,18.1-1c3.4-0.2,6.9-0.2,10.3-0.6
				c0.9-0.1,2-0.8,2.6-1.5c3.4-4.6,9-4.7,12.4,0.1c0.8,1.2,1.8,1.1,2.8,1.1c32.6,0,65.3,0,97.9,0c10.3,0,20.7,0,31,0
				c2.7-4.9,8.6-5.5,12.6-1.3c1,1,1.9,1.3,3.2,1.3c7.5,0,15,0,22.6-0.1c1.8,0,2.3,0.5,2.2,2.2c-0.1,2.1,0.1,4.2,0.1,6.7
				c-6.9,0-13.5,0-20.1,0c-2.1,0-4.3,0.1-6.4,0.2c-1.6,0.1-2.3-0.6-2.5-2c-0.3-1.7-0.6-3.4-1-5.1c-0.4-2-1.8-2.8-4.3-2.6
				c-2.7,0.2-3.4,0.9-3.4,3.1c0,1.7-0.1,3.3,0.1,5c0.2,1.9-0.7,2.5-2.5,2.5c-3.8,0-7.6,0.1-11.4,0.1c-22.5,0.1-45,0.3-67.5,0.3
				c-15.5,0-31,0-46.6,0c-2.6,0-5.1-0.2-7.7-0.2c-1.3,0-1.7-0.6-1.6-1.8c0.1-2,0.3-4,0.2-6c0-2.5-1.1-3.8-3.3-3.9
				c-3.3-0.2-4.4,0.5-4.8,3.3c-0.2,1.6-0.3,3.1-0.5,4.7c-0.3,2.9-0.3,2.9-3.4,2.9c-9.5-0.2-19-0.3-28.6-0.5
				C199.3,375.4,198.3,375.4,197.1,375.4z"/>
			<path d="M315.2,337.7c11.5,0,22.7,0,34,0c10.6,0,21.2,0.2,31.9,0.2c2.1,0,2.8,1.5,3.5,3c0.1,0.2-0.7,1.2-1.2,1.2
				c-2.6,0.2-5.2,0.2-7.9,0.2c-29,0.1-57.9,0.1-86.9,0.2c-6.7,0-13.4,0.1-20.1,0c-11-0.1-21.9-0.2-32.9-0.3c-0.9,0-2.8,0.7-2.6-0.9
				c0.1-1.2,1.6-2.3,2.7-3.2c0.4-0.3,1.3-0.1,2-0.1c21.3-0.1,42.6-0.2,63.9-0.3c0.2,0,0.4-0.1,0.5-0.1c-0.8-1.8-2.3-1.9-3.9-1.9
				c-15.2,0-30.4,0-45.5,0c-3.5,0-7-0.1-10.6-0.1c-0.5,0-1-0.1-2.2-0.2c2.6-2,4.5-3.9,7.6-3.9c17.2-0.1,34.3-0.2,51.5-0.3
				c1.8,0,1.8,0,3-1.8c-16.4,0-32.7,0-49.1,0c-0.1-0.2-0.1-0.4-0.2-0.6c1.3-0.5,2.5-0.9,3.8-1.4c6.7-2.7,13.8-2.5,20.9-2.5
				c22.3,0,44.6,0.1,66.9,0.1c6.2,0,12.3,0.2,18.2,2.4c1.1,0.4,2.3,0.9,3.4,1.3c0,0.2-0.1,0.4-0.1,0.5c-16.8,0-33.6,0-50.6,0
				c0.5,1.7,1.5,1.9,3,1.9c14.7,0,29.4,0.1,44.1,0.1c3.2,0,6.5,0,9.7,0.2c2.6,0.2,4.5,1.7,6.4,3.3c0,0.2-0.1,0.4-0.1,0.6
				c-1,0.1-1.9,0.3-2.9,0.3c-19,0.1-37.9,0.1-56.9,0.1C317,335.6,315.9,336,315.2,337.7z"/>
			<path d="M309.9,350.4c-12.1,0-24.3,0-36.4,0c-12.7-0.1-25.4-0.2-38.1-0.4c-1.4,0-2.8-0.2-4.1-0.3c-1.1,0-2.2,0-2-1.6
				c0.1-1.3,0.3-2.7,2.1-2.7c3.4-0.1,6.9-0.1,10.3-0.1c25.6-0.1,51.3-0.2,76.9-0.2c12.2,0,24.4,0,36.6,0.1c9.5,0.1,19,0.2,28.5,0.4
				c0.8,0,2,0.4,2.4,1.1c1.3,1.8,0.5,3.1-1.7,3.1c-22.6,0.2-45.2,0.3-67.8,0.5c-2.3,0-4.5,0-6.8,0
				C309.9,350.2,309.9,350.3,309.9,350.4z"/>
			<path d="M308.3,353c15.6,0,31.2,0,46.8,0c10.6,0,21.2,0.2,31.9,0.3c1.4,0,2.1,0.5,2.1,1.8c0.1,1.4-0.8,1.6-2,1.6
				c-12.1,0.1-24.3,0.3-36.4,0.3c-30.8,0.1-61.5,0.1-92.3,0c-9.8,0-19.6-0.2-29.4-0.3c-1.2,0-2-0.2-2.1-1.6c-0.1-1.5,0.6-1.9,2-1.9
				c15-0.1,29.9-0.3,44.9-0.3C285.3,352.9,296.8,352.9,308.3,353C308.3,352.9,308.3,353,308.3,353z"/>
			<path d="M309.3,363.7c-20.1,0-40.3,0-60.4,0c-1.4,0-2.8-0.2-4.1-0.6c-0.6-0.2-1-1-1.5-1.5c0.5-0.4,1-1.1,1.6-1.3
				c0.7-0.3,1.6-0.3,2.4-0.3c31.8-0.1,63.6-0.2,95.3-0.3c9.6,0,19.2,0.2,28.8,0.3c0.7,0,1.4,0,2,0.2c0.7,0.3,1.2,0.8,1.9,1.3
				c-0.5,0.6-1,1.5-1.6,1.6c-1.7,0.4-3.5,0.6-5.3,0.6C348.8,363.7,329,363.7,309.3,363.7C309.3,363.7,309.3,363.7,309.3,363.7z"/>
			<path d="M306.2,222.9c22.1,0,44.1-0.1,66.2,0.1c3.6,0,7.3,1.1,10.9,2.1c2.4,0.7,4,2.6,4.9,5.1c3.3,9.8,6.7,19.5,8.4,29.7
				c0.2,1.3,0.2,2.6,0.3,3.9c0.1,3.6-1.4,5.4-4.9,5.4c-2.5,0-5.1-0.5-7.6-0.8c-9.7-1.2-19.3-2.6-29-3.6c-21.6-2.2-43.3-2.6-64.9-1.9
				c-15.9,0.5-31.7,2.2-47.5,3.5c-5.8,0.5-11.5,1.6-17.3,2.5c-0.3,0-0.5,0.1-0.8,0.1c-5.6,0.5-7.5-1.1-7.2-6.7
				c0.7-11,4.6-21.7,8-32.1c1-2.9,3.3-4.6,6.1-5.3c3.3-0.9,6.7-1.8,10.1-1.8C263.7,222.8,284.3,222.9,306.2,222.9
				C306.2,222.9,306.2,222.9,306.2,222.9z M307.4,224.8C307.4,224.7,307.4,224.7,307.4,224.8c-20.9-0.1-40.4-0.1-61.3,0
				c-3.9,0-7.8,0.8-11.6,1.6c-3.4,0.7-7.2,2.9-8.2,6.4c-0.8,2.7-1.7,5.4-2.3,8.1c-1.3,6.6-2.7,13.2-3.4,19.8
				c-0.5,4.6,1.7,6.2,6.4,5.6c7.6-1,15.1-2.2,22.7-2.8c14.1-1.1,28.1-2.4,42.2-2.7c15.3-0.3,30.6,0,45.9,0.7c11,0.4,22,1.7,33,2.8
				c5.6,0.6,11.2,1.7,16.8,2.3c5.5,0.6,7-1.5,6.5-6c-0.1-1.4-0.1-2.9-0.5-4.3c-2.5-8.3-5.2-16.5-7.8-24.8c-0.8-2.5-2.5-4.2-4.9-4.7
				c-4-0.9-8-1.9-12-1.9C348.5,224.7,327.9,224.8,307.4,224.8z"/>
			<path d="M419.3,316.3c0.2,9.8-7.5,17.7-17.2,17.7c-9.9-0.1-18-7.9-18.2-17.7c-0.2-9.7,7.6-17.7,17.3-17.6
				C411.2,298.6,419.1,306.4,419.3,316.3z M401.4,302.4c-7.7,0-13.8,6.1-13.6,13.7c0.1,7.9,6.5,14.1,14.5,14c7.4,0,13.7-6.6,13.4-14
				C415.4,308.6,409,302.4,401.4,302.4z"/>
			<path d="M232.9,316.4c0.2,9.9-7.5,17.6-17.4,17.6c-9.9,0-17.8-7.9-17.9-18.1c-0.2-9.6,7.6-17.3,17.6-17.3
				C224.8,298.6,232.7,306.5,232.9,316.4z M229.1,316.3c-0.2-7.7-6.3-13.8-14-13.8c-7.7,0-13.9,6.2-13.7,13.8
				c0.2,7.6,6.6,13.9,14.1,13.9C223.2,330.1,229.3,324,229.1,316.3z"/>
			<path d="M397.9,353.3c0-2.5,2-4.6,4.5-4.5c2.6,0,4.6,2,4.6,4.6c0,2.3-2.1,4.5-4.4,4.5C400,357.9,397.9,355.9,397.9,353.3z"/>
			<path d="M211.5,352.4c0-2.5,1.8-4.4,4.3-4.5c2.5,0,4.6,2.1,4.6,4.6c0,2.4-1.9,4.4-4.4,4.5C213.5,357.1,211.5,355.1,211.5,352.4z"
				/>
			<path class="st1" d="M307.4,224.8c20.6,0,41.1-0.1,61.7,0.1c4,0,8,1,12,1.9c2.4,0.5,4.1,2.3,4.9,4.7c2.6,8.3,5.2,16.5,7.8,24.8
				c0.4,1.4,0.4,2.9,0.5,4.3c0.4,4.5-1.1,6.6-6.5,6c-5.6-0.6-11.2-1.8-16.8-2.3c-11-1.1-22-2.3-33-2.8c-15.3-0.6-30.6-1-45.9-0.7
				c-14.1,0.3-28.2,1.5-42.2,2.7c-7.6,0.6-15.1,1.9-22.7,2.8c-4.7,0.6-6.9-0.9-6.4-5.6c0.7-6.7,2.1-13.2,3.4-19.8
				c0.5-2.7,1.5-5.4,2.3-8.1c1-3.5,4.8-5.7,8.2-6.4c3.8-0.8,7.7-1.6,11.6-1.6C267,224.6,286.5,224.7,307.4,224.8
				C307.4,224.7,307.4,224.7,307.4,224.8z"/>
			<path class="st1" d="M401.4,302.4c7.6,0,14,6.2,14.3,13.7c0.3,7.4-6.1,14-13.4,14c-8,0-14.4-6.1-14.5-14
				C387.6,308.5,393.7,302.4,401.4,302.4z"/>
			<path class="st1" d="M229.1,316.3c0.2,7.7-5.9,13.8-13.7,13.9c-7.5,0-13.9-6.3-14.1-13.9c-0.2-7.6,6-13.8,13.7-13.8
				C222.8,302.5,228.9,308.6,229.1,316.3z"/>
		</g>
		<g>
			<path class="st4" d="M306.9,234.7c14.1,0,28.3-0.1,42.4,0.1c2.7,0,5.5,0.7,8.2,1.3c1.6,0.4,2.8,1.5,3.4,3.2
				c1.8,5.6,2.2,11.1,3.9,16.7c0.3,0.9,0.3,1.9,0.4,2.9c0.3,3.1-0.9,4.8-4.6,4.4c-3.9-0.4-6.1-0.6-10-1c-7.6-0.7-16-1-23.5-1.3
				c-10.5-0.4-20.4-0.3-30.9-0.1c-9.7,0.2-19.3,0.5-28.9,1.2c-5.2,0.4-10.4,0-15.6,0.7c-3.2,0.4-4.7-0.6-4.4-3.7
				c0.5-4.5,1.5-8.9,2.3-13.4c0.4-1.9,1-3.6,1.6-5.5c0.7-2.4,3.3-3.8,5.7-4.3c2.6-0.6,5.3-1.1,8-1.1
				C279.2,234.7,292.6,234.7,306.9,234.7C306.9,234.7,306.9,234.7,306.9,234.7z"/>
			<g>
				<defs>
					<polygon id="SVGID_3_" points="242.2,237.6 266.7,264.9 238.7,264.3 237.3,235.8 					"/>
				</defs>
				<clipPath id="SVGID_4_">
					<use xlink:href="#SVGID_3_"  style="overflow:visible;"/>
				</clipPath>
				<path class="st5" d="M307.2,234.9c14.1,0,28.3-0.1,42.4,0.1c2.7,0,5.5,0.7,8.2,1.3c1.6,0.4,2.8,1.5,3.4,3.2
					c1.8,5.6,2.2,11.1,3.9,16.7c0.3,0.9,0.3,1.9,0.4,2.9c0.3,3.1-0.7,4.4-4.5,4c-3.9-0.4-6.3,0.1-10.2-0.3
					c-7.6-0.7-15.1-1.6-22.7-1.9c-10.5-0.4-21.1-0.7-31.6-0.4c-9.7,0.2-19.4,0.3-29.1,1.1c-5.2,0.4-10.3,0.7-15.5,1.4
					c-3.2,0.4-4.7-0.6-4.4-3.7c0.5-4.5,1.5-8.9,2.3-13.4c0.4-1.9,1-3.6,1.6-5.5c0.7-2.4,3.3-3.8,5.7-4.3c2.6-0.6,5.3-1.1,8-1.1
					C279.4,234.8,292.8,234.8,307.2,234.9C307.2,234.9,307.2,234.9,307.2,234.9z"/>
			</g>
		</g>
	</g>
	<g>
		<path class="st1" d="M250.9,168.2c-0.4,0.3-0.8,0.6-1.2,0.9c-2.8,2.1-5.6,4.1-8.4,6.2c-0.5,0.4-0.7,0.7-0.4,1.4
			c1.2,3.5,2.3,7.1,3.4,10.6c0.1,0.2,0.1,0.4,0.2,0.8c-0.3-0.2-0.4-0.3-0.6-0.4c-3.1-2.2-6.2-4.5-9.3-6.8c-0.4-0.3-0.6-0.3-1,0
			c-3.1,2.2-6.2,4.5-9.3,6.7c-0.2,0.1-0.4,0.3-0.7,0.5c0.3-1,0.6-1.8,0.8-2.6c1-3,1.9-6,2.9-9.1c0.2-0.5,0.1-0.8-0.3-1.1
			c-3.1-2.2-6.2-4.5-9.2-6.8c-0.2-0.1-0.3-0.3-0.5-0.5c1.2,0,2.4,0,3.6,0c2.9,0,5.7,0,8.6,0c0.5,0,0.7-0.1,0.8-0.6
			c1.2-3.6,2.3-7.3,3.5-10.9c0.1-0.2,0.2-0.4,0.3-0.8c0.6,2,1.2,3.8,1.8,5.6c0.7,2.1,1.4,4.1,2,6.2c0.1,0.5,0.4,0.6,0.8,0.6
			c3.8,0,7.7,0,11.5,0c0.2,0,0.4,0,0.6,0C250.9,168.1,250.9,168.2,250.9,168.2z"/>
		<path class="st1" d="M322.6,168.2c-0.4,0.3-0.8,0.6-1.2,0.9c-2.8,2.1-5.6,4.1-8.4,6.2c-0.5,0.4-0.7,0.7-0.4,1.4
			c1.2,3.5,2.3,7.1,3.4,10.6c0.1,0.2,0.1,0.4,0.2,0.8c-0.3-0.2-0.4-0.3-0.6-0.4c-3.1-2.2-6.2-4.5-9.3-6.8c-0.4-0.3-0.6-0.3-1,0
			c-3.1,2.2-6.2,4.5-9.3,6.7c-0.2,0.1-0.4,0.3-0.7,0.5c0.3-1,0.6-1.8,0.8-2.6c1-3,1.9-6,2.9-9.1c0.2-0.5,0.1-0.8-0.3-1.1
			c-3.1-2.2-6.2-4.5-9.2-6.8c-0.2-0.1-0.3-0.3-0.5-0.5c1.2,0,2.4,0,3.6,0c2.9,0,5.7,0,8.6,0c0.5,0,0.7-0.1,0.8-0.6
			c1.2-3.6,2.3-7.3,3.5-10.9c0.1-0.2,0.2-0.4,0.3-0.8c0.6,2,1.2,3.8,1.8,5.6c0.7,2.1,1.4,4.1,2,6.2c0.1,0.5,0.4,0.6,0.8,0.6
			c3.8,0,7.7,0,11.5,0c0.2,0,0.4,0,0.6,0C322.6,168.1,322.6,168.2,322.6,168.2z"/>
		<path class="st1" d="M394.3,168.2c-0.4,0.3-0.8,0.6-1.2,0.9c-2.8,2.1-5.6,4.1-8.4,6.2c-0.5,0.4-0.7,0.7-0.4,1.4
			c1.2,3.5,2.3,7.1,3.4,10.6c0.1,0.2,0.1,0.4,0.2,0.8c-0.3-0.2-0.4-0.3-0.6-0.4c-3.1-2.2-6.2-4.5-9.3-6.8c-0.4-0.3-0.6-0.3-1,0
			c-3.1,2.2-6.2,4.5-9.3,6.7c-0.2,0.1-0.4,0.3-0.7,0.5c0.3-1,0.6-1.8,0.8-2.6c1-3,1.9-6,2.9-9.1c0.2-0.5,0.1-0.8-0.3-1.1
			c-3.1-2.2-6.2-4.5-9.2-6.8c-0.2-0.1-0.3-0.3-0.5-0.5c1.2,0,2.4,0,3.6,0c2.9,0,5.7,0,8.6,0c0.5,0,0.7-0.1,0.8-0.6
			c1.2-3.6,2.3-7.3,3.5-10.9c0.1-0.2,0.2-0.4,0.3-0.8c0.6,2,1.2,3.8,1.8,5.6c0.7,2.1,1.4,4.1,2,6.2c0.1,0.5,0.4,0.6,0.8,0.6
			c3.8,0,7.7,0,11.5,0c0.2,0,0.4,0,0.6,0C394.3,168.1,394.3,168.2,394.3,168.2z"/>
	</g>
	<path class="st1" d="M458.1,233.9c-0.4,0.3-0.8,0.6-1.2,0.9c-2.8,2.1-5.6,4.1-8.4,6.2c-0.5,0.4-0.7,0.7-0.4,1.4
		c1.2,3.5,2.3,7.1,3.4,10.6c0.1,0.2,0.1,0.4,0.2,0.8c-0.3-0.2-0.4-0.3-0.6-0.4c-3.1-2.2-6.2-4.5-9.3-6.8c-0.4-0.3-0.6-0.3-1,0
		c-3.1,2.2-6.2,4.5-9.3,6.7c-0.2,0.1-0.4,0.3-0.7,0.5c0.3-1,0.6-1.8,0.8-2.6c1-3,1.9-6,2.9-9.1c0.2-0.5,0.1-0.8-0.3-1.1
		c-3.1-2.2-6.2-4.5-9.2-6.8c-0.2-0.1-0.3-0.3-0.5-0.5c1.2,0,2.4,0,3.6,0c2.9,0,5.7,0,8.6,0c0.5,0,0.7-0.1,0.8-0.6
		c1.2-3.6,2.3-7.3,3.5-10.9c0.1-0.2,0.2-0.4,0.3-0.8c0.6,2,1.2,3.8,1.8,5.6c0.7,2.1,1.4,4.1,2,6.2c0.1,0.5,0.4,0.6,0.8,0.6
		c3.8,0,7.7,0,11.5,0c0.2,0,0.4,0,0.6,0C458.1,233.8,458.1,233.9,458.1,233.9z"/>
	<path class="st1" d="M469.5,330c-0.4,0.3-0.8,0.6-1.2,0.9c-2.8,2.1-5.6,4.1-8.4,6.2c-0.5,0.4-0.7,0.7-0.4,1.4
		c1.2,3.5,2.3,7.1,3.4,10.6c0.1,0.2,0.1,0.4,0.2,0.8c-0.3-0.2-0.4-0.3-0.6-0.4c-3.1-2.2-6.2-4.5-9.3-6.8c-0.4-0.3-0.6-0.3-1,0
		c-3.1,2.2-6.2,4.5-9.3,6.7c-0.2,0.1-0.4,0.3-0.7,0.5c0.3-1,0.6-1.8,0.8-2.6c1-3,1.9-6,2.9-9.1c0.2-0.5,0.1-0.8-0.3-1.1
		c-3.1-2.2-6.2-4.5-9.2-6.8c-0.2-0.1-0.3-0.3-0.5-0.5c1.2,0,2.4,0,3.6,0c2.9,0,5.7,0,8.6,0c0.5,0,0.7-0.1,0.8-0.6
		c1.2-3.6,2.3-7.3,3.5-10.9c0.1-0.2,0.2-0.4,0.3-0.8c0.6,2,1.2,3.8,1.8,5.6c0.7,2.1,1.4,4.1,2,6.2c0.1,0.5,0.4,0.6,0.8,0.6
		c3.8,0,7.7,0,11.5,0c0.2,0,0.4,0,0.6,0C469.5,329.9,469.5,329.9,469.5,330z"/>
</g>
<g>
	<path class="st1" d="M79.9,301.5c-0.5,0.3-0.9,0.7-1.4,1c-3.3,2.4-6.6,4.8-9.9,7.2c-0.6,0.4-0.8,0.8-0.5,1.6
		c1.4,4.1,2.7,8.3,4,12.4c0.1,0.2,0.1,0.5,0.3,0.9c-0.3-0.2-0.5-0.3-0.7-0.4c-3.6-2.6-7.3-5.2-10.9-7.9c-0.5-0.3-0.8-0.4-1.2,0
		c-3.6,2.6-7.3,5.2-10.9,7.8c-0.2,0.2-0.5,0.3-0.9,0.6c0.4-1.1,0.6-2.1,0.9-3c1.1-3.5,2.3-7.1,3.4-10.6c0.2-0.6,0.1-0.9-0.4-1.3
		c-3.6-2.6-7.2-5.3-10.8-7.9c-0.2-0.1-0.4-0.3-0.5-0.6c1.4,0,2.8,0,4.2,0c3.4,0,6.7,0,10.1,0c0.6,0,0.8-0.2,1-0.7
		c1.4-4.3,2.7-8.5,4.1-12.7c0.1-0.3,0.2-0.5,0.4-1c0.8,2.3,1.4,4.4,2.1,6.5c0.8,2.4,1.6,4.8,2.3,7.3c0.2,0.6,0.4,0.7,1,0.7
		c4.5,0,9,0,13.5,0c0.2,0,0.5,0,0.7,0C79.8,301.4,79.9,301.4,79.9,301.5z"/>
	<path class="st1" d="M571.1,302.7c-0.5,0.3-0.9,0.7-1.4,1c-3.3,2.4-6.6,4.8-9.9,7.2c-0.6,0.4-0.8,0.8-0.5,1.6
		c1.4,4.1,2.7,8.3,4,12.4c0.1,0.2,0.1,0.5,0.3,0.9c-0.3-0.2-0.5-0.3-0.7-0.4c-3.6-2.6-7.3-5.2-10.9-7.9c-0.5-0.3-0.8-0.4-1.2,0
		c-3.6,2.6-7.3,5.2-10.9,7.8c-0.2,0.2-0.5,0.3-0.9,0.6c0.4-1.1,0.6-2.1,0.9-3c1.1-3.5,2.3-7.1,3.4-10.6c0.2-0.6,0.1-0.9-0.4-1.3
		c-3.6-2.6-7.2-5.3-10.8-7.9c-0.2-0.1-0.4-0.3-0.5-0.6c1.4,0,2.8,0,4.2,0c3.4,0,6.7,0,10.1,0c0.6,0,0.8-0.2,1-0.7
		c1.4-4.3,2.7-8.5,4.1-12.7c0.1-0.3,0.2-0.5,0.4-1c0.8,2.3,1.4,4.4,2.1,6.5c0.8,2.4,1.6,4.8,2.3,7.3c0.2,0.6,0.4,0.7,1,0.7
		c4.5,0,9,0,13.5,0c0.2,0,0.5,0,0.7,0C571.1,302.6,571.1,302.7,571.1,302.7z"/>
</g>
<g>
	<path class="st1" d="M64,181.8l7.2-11l42.8,10.4l0.1-0.1l-27-34.7l7.1-10.8l44.5,29l-4.8,7.4l-34.3-22.4l-0.1,0.1l26.3,34.7
		l-4.2,6.4l-42.4-10.1L79,181l34.3,22.4l-4.8,7.4L64,181.8z"/>
	<path class="st1" d="M109,120.7l6.5-6.6l38,37.1l-6.5,6.6L109,120.7z"/>
	<path class="st1" d="M129.4,100.1l7.9-5.8l42.6,17.4l0.1-0.1l-23-31.6l7.2-5.2l31.2,43l-7.9,5.8L145,106.1l-0.2,0.1l22.9,31.6
		l-7.2,5.2L129.4,100.1z"/>
	<path class="st1" d="M181.9,65.8l8.3-4.1l23.5,47.6l-8.3,4.1L181.9,65.8z"/>
	<path class="st1" d="M255.9,39.1c3.9-0.7,7.5-0.6,10.9,0.2c3.4,0.9,6.4,2.4,9,4.5c2.6,2.1,4.8,4.7,6.5,7.8c1.8,3.1,3,6.5,3.7,10.2
		c0.7,3.8,0.8,7.4,0.2,10.9c-0.5,3.5-1.6,6.7-3.3,9.6c-1.7,2.9-3.9,5.3-6.8,7.3c-2.8,2-6.2,3.4-10.1,4.1c-3.9,0.7-7.5,0.7-10.9-0.2
		c-3.4-0.9-6.3-2.3-9-4.4c-2.6-2.1-4.8-4.7-6.5-7.8c-1.8-3.1-3-6.5-3.7-10.3c-0.7-3.7-0.8-7.3-0.2-10.8c0.5-3.5,1.6-6.7,3.3-9.6
		c1.7-2.9,3.9-5.3,6.8-7.4C248.6,41.2,252,39.9,255.9,39.1z M257.3,46.6c-2.8,0.5-5.1,1.5-6.9,3c-1.8,1.5-3.2,3.3-4.1,5.4
		c-0.9,2.1-1.5,4.4-1.6,6.9c-0.2,2.5,0,5,0.4,7.5c0.5,2.5,1.2,4.9,2.3,7.1c1.1,2.3,2.4,4.2,4,5.9c1.6,1.6,3.5,2.8,5.8,3.6
		c2.2,0.7,4.7,0.9,7.5,0.3c2.8-0.5,5.1-1.5,6.9-3c1.8-1.5,3.2-3.3,4.1-5.4c0.9-2.1,1.5-4.4,1.6-6.9c0.2-2.5,0-5-0.4-7.5
		c-0.5-2.5-1.2-4.9-2.3-7.1c-1.1-2.3-2.4-4.2-4-5.9c-1.6-1.6-3.5-2.8-5.8-3.6C262.6,46.2,260.1,46.1,257.3,46.6z"/>
	<path class="st1" d="M297.9,33.8l9.4,0.9l5.6,41.3l0.1,0l14.6-39.4l9.5,0.9l6.4,41.4l0.1,0l13.8-39.4l9.4,0.9l-19.7,51.4l-9.4-0.9
		l-6.6-41.4l-0.1,0l-14.8,39.3l-9.5-0.9L297.9,33.8z"/>
	<path class="st1" d="M385,46.7l9.1,3.6l8.2,45.3l0.1,0.1l14.4-36.4l8.2,3.2l-19.5,49.4l-9.1-3.6l-8.2-45.2l-0.2-0.1l-14.3,36.3
		l-8.2-3.2L385,46.7z"/>
	<path class="st1" d="M444.3,73.3L475.8,95l-4.6,6.6l-23.8-16.4l-7.9,11.5l22.1,15.2l-4.3,6.2l-22.1-15.2l-8.8,12.8l24.3,16.7
		l-4.6,6.6l-31.9-22L444.3,73.3z"/>
	<path class="st1" d="M490.6,107.8l17.2,18.6c4,4.3,6,8.4,6.1,12.2c0.1,3.9-1.5,7.3-4.8,10.4c-1.9,1.7-3.6,2.9-5.4,3.4
		c-1.7,0.6-3.3,0.9-4.7,0.8c-1.4,0-2.6-0.3-3.6-0.7s-1.7-0.7-2.1-1l-0.1,0.1c0.5,0.6,0.9,1.4,1.2,2.4c0.3,0.9,0.4,2,0.3,3.2
		c-0.1,1.2-0.5,2.4-1.1,3.7c-0.7,1.3-1.8,2.7-3.3,4.1c-2.3,2.1-4.2,4.2-5.8,6.3c-1.6,2.1-2.4,3.9-2.5,5.3l-6.8-7.3
		c0.4-1.3,1-2.4,2-3.5c0.9-1,1.9-2,2.8-2.9c1.8-1.6,3.2-3.2,4.3-4.6c1.1-1.4,1.8-2.8,2.1-4.2c0.3-1.4,0.2-2.7-0.3-4.1
		c-0.5-1.4-1.5-2.8-3-4.4l-9.3-10l-16.1,14.8l-6.3-6.8L490.6,107.8z M479.2,131l10.3,11.2c2,2.2,4.1,3.4,6.1,3.5
		c2.1,0.2,4.2-0.7,6.2-2.6c1.2-1.1,2.1-2.3,2.5-3.3c0.4-1.1,0.6-2.2,0.4-3.2c-0.2-1-0.5-2-1.1-3c-0.6-1-1.3-1.9-2.1-2.7l-10.2-11.1
		L479.2,131z"/>
	<path class="st1" d="M503.8,179c-1.8,1-3.1,2.2-4,3.5c-0.9,1.3-1.4,2.7-1.6,4.3c-0.2,1.5-0.1,3.1,0.4,4.7c0.4,1.6,1.1,3.2,2.1,4.9
		c1,1.8,2.1,3.2,3.2,4.2c1.1,1,2.2,1.7,3.3,2.1s2.2,0.5,3.2,0.4c1-0.1,2-0.5,2.8-0.9c1.8-1,2.8-2.2,3.2-3.4c0.4-1.3,0.5-2.5,0.3-3.6
		c-0.3-2-0.9-4.2-1.6-6.7c-0.7-2.5-1.5-5.6-2.5-9.2c-0.6-2.3-0.9-4.3-0.8-6.1c0.1-1.8,0.4-3.4,1-4.7s1.4-2.5,2.3-3.5
		s2.1-1.8,3.3-2.5c2.3-1.3,4.6-2,6.9-2c2.3,0,4.4,0.5,6.4,1.4c2,1,3.9,2.3,5.6,4c1.7,1.7,3.1,3.6,4.3,5.7c1.4,2.4,2.4,4.9,3,7.3
		c0.6,2.5,0.7,4.9,0.4,7.2c-0.3,2.3-1.1,4.5-2.4,6.5c-1.3,2-3.1,3.7-5.5,5.1l-4.6-8.1c2.8-1.9,4.4-4.1,4.6-6.6s-0.5-5.2-2.1-8
		c-0.5-0.9-1.2-1.9-2-2.7c-0.8-0.9-1.6-1.6-2.5-2.2c-0.9-0.6-1.9-0.9-3-1c-1.1-0.1-2.2,0.2-3.4,0.9c-1.6,0.9-2.6,2.2-3,3.7
		c-0.3,1.5-0.3,3.3,0.2,5.2c0.1,0.2,0.3,1,0.6,2.3c0.4,1.4,0.8,2.9,1.2,4.6c0.5,1.7,0.9,3.3,1.3,4.9c0.4,1.6,0.7,2.8,0.9,3.5
		c0.4,1.8,0.5,3.5,0.3,5c-0.2,1.6-0.6,3.1-1.2,4.4c-0.6,1.4-1.4,2.6-2.4,3.6c-1,1.1-2.1,1.9-3.3,2.6c-2.6,1.5-5.1,2.2-7.5,2.2
		c-2.4,0-4.7-0.5-6.9-1.6c-2.1-1.1-4.1-2.5-5.9-4.4c-1.8-1.9-3.3-4-4.6-6.2c-1.5-2.6-2.6-5.3-3.3-8c-0.7-2.7-0.9-5.3-0.5-7.8
		c0.3-2.5,1.3-4.8,2.8-7.1c1.5-2.2,3.6-4.2,6.5-5.8L503.8,179z"/>
</g>
<g>
	<path class="st1" d="M138.3,446.4c2.5,3,4.3,6.2,5.1,9.6c0.9,3.4,1,6.7,0.5,10c-0.5,3.3-1.7,6.5-3.6,9.5c-1.8,3.1-4.2,5.8-7.1,8.2
		c-2.9,2.5-6.1,4.3-9.4,5.6c-3.3,1.3-6.7,1.9-10,1.8c-3.3-0.1-6.6-0.8-9.7-2.3c-3.1-1.5-6-3.7-8.5-6.8c-2.5-3-4.3-6.2-5.2-9.6
		c-0.9-3.4-1.1-6.7-0.5-10c0.5-3.3,1.7-6.5,3.6-9.5c1.8-3.1,4.2-5.8,7.1-8.3c2.9-2.4,6-4.3,9.3-5.5c3.3-1.3,6.7-1.9,10-1.8
		c3.3,0.1,6.6,0.8,9.7,2.3C132.9,441.1,135.7,443.3,138.3,446.4z M132.4,451.2c-1.8-2.2-3.8-3.7-6-4.5c-2.2-0.8-4.4-1.2-6.7-0.9
		c-2.3,0.2-4.6,0.9-6.8,2c-2.3,1.1-4.4,2.4-6.3,4.1s-3.6,3.5-5.1,5.5c-1.5,2-2.5,4.2-3.2,6.4c-0.6,2.2-0.7,4.5-0.3,6.8
		c0.4,2.3,1.6,4.5,3.4,6.7s3.8,3.7,6,4.5c2.2,0.8,4.4,1.2,6.7,0.9c2.3-0.2,4.6-0.9,6.8-2c2.3-1.1,4.4-2.4,6.3-4.1s3.6-3.5,5.1-5.5
		c1.5-2,2.5-4.2,3.2-6.4c0.6-2.2,0.7-4.5,0.3-6.8C135.4,455.6,134.3,453.4,132.4,451.2z"/>
	<path class="st1" d="M158.6,470.2l29,22.4l-4.9,6.4l-21.6-16.7l-8.5,11l19,14.7l-4.6,6l-19-14.7l-14.4,18.6l-7.4-5.7L158.6,470.2z"
		/>
	<path class="st1" d="M223.7,510.2l9.3,3.5l0.4,56.9L224,567l0.3-14.9l-19.8-7.5l-9.6,11.4l-9-3.4L223.7,510.2z M209.3,538.9
		l15.2,5.7l0.6-24.2l-0.2-0.1L209.3,538.9z"/>
	<path class="st1" d="M253.8,521.6l13,1.4l10,42.9l0.1,0l18.8-39.7l12.9,1.4l-5.9,52.8l-8.8-1l4.5-40.7l-0.1,0l-19.1,39.1l-7.6-0.8
		l-10.1-42.3l-0.1,0l-4.5,40.7l-8.8-1L253.8,521.6z"/>
	<path class="st1" d="M316.9,526.4l37.9-4.9l1,8l-28.7,3.7l1.8,13.8l26.5-3.5l1,7.5l-26.5,3.5l2,15.4l29.2-3.8l1,8l-38.4,5
		L316.9,526.4z"/>
	<path class="st1" d="M360.9,520l23.9-8.6c5.5-2,10.1-2.3,13.7-0.9s6.2,4.2,7.7,8.4c0.9,2.4,1.2,4.5,1.1,6.3
		c-0.1,1.8-0.5,3.4-1.1,4.7c-0.6,1.3-1.3,2.3-2,3.1c-0.8,0.7-1.3,1.3-1.7,1.6l0.1,0.1c0.8-0.2,1.7-0.2,2.7-0.2c1,0.1,2,0.4,3.1,0.9
		c1,0.5,2,1.4,3,2.5c1,1.1,1.8,2.7,2.5,4.6c1.1,2.9,2.2,5.5,3.5,7.8c1.3,2.2,2.6,3.7,3.9,4.4l-9.4,3.4c-1-0.8-1.9-1.9-2.4-3.2
		c-0.6-1.3-1.1-2.5-1.5-3.7c-0.8-2.3-1.7-4.2-2.5-5.8c-0.9-1.6-1.9-2.7-3-3.6c-1.1-0.8-2.4-1.3-3.9-1.3c-1.5,0-3.2,0.3-5.2,1
		l-12.9,4.6l7.4,20.6l-8.7,3.1L360.9,520z M377.8,539.6l14.3-5.2c2.8-1,4.7-2.4,5.6-4.3s1-4.1,0-6.8c-0.6-1.6-1.3-2.8-2.1-3.6
		c-0.8-0.8-1.8-1.4-2.8-1.7c-1-0.3-2.1-0.3-3.2-0.1c-1.1,0.2-2.2,0.5-3.4,0.9l-14.2,5.1L377.8,539.6z"/>
	<path class="st1" d="M408,500.8l8.1-4.5l25.8,46.4l-8.1,4.5L408,500.8z"/>
	<path class="st1" d="M463.7,482.9c-1.3-1-2.6-1.7-3.9-2.3c-1.3-0.6-2.7-0.9-4.2-1c-1.4-0.1-2.9,0.2-4.4,0.7c-1.5,0.5-3,1.3-4.5,2.5
		c-2.2,1.8-3.8,3.7-4.7,5.9c-0.9,2.2-1.3,4.4-1.1,6.7c0.2,2.3,0.8,4.6,1.8,6.9c1,2.3,2.3,4.4,3.9,6.4s3.3,3.7,5.3,5.3
		c2,1.5,4.1,2.6,6.3,3.3c2.2,0.7,4.5,0.9,6.8,0.5c2.3-0.4,4.6-1.4,6.8-3.2c1.6-1.3,2.8-2.7,3.6-4.3c0.8-1.5,1.3-3.2,1.4-4.9
		c0.1-1.7-0.1-3.4-0.6-5.1c-0.5-1.7-1.3-3.4-2.4-5l7.1-5.6c1.8,2.6,3.1,5.3,3.8,8.1c0.7,2.8,0.9,5.5,0.5,8.3
		c-0.4,2.7-1.3,5.3-2.7,7.8c-1.5,2.5-3.4,4.7-6,6.7c-3.1,2.5-6.4,4.1-9.7,4.9c-3.4,0.8-6.7,0.9-10,0.3c-3.3-0.6-6.4-1.9-9.4-3.8
		c-3-1.9-5.7-4.4-8.1-7.4c-2.3-3-4.1-6.1-5.3-9.5c-1.2-3.4-1.7-6.7-1.5-10.1c0.1-3.3,1-6.6,2.5-9.7c1.5-3.1,3.9-5.9,7-8.4
		c2.3-1.8,4.8-3.3,7.4-4.2c2.6-1,5.1-1.5,7.7-1.5c2.5,0,5,0.5,7.3,1.4c2.4,1,4.5,2.5,6.6,4.6L463.7,482.9z"/>
	<path class="st1" d="M473.4,448.3l6.2-7.7l54.1,17.5l-6.3,7.7l-14.1-5l-13.3,16.5l7.8,12.7l-6,7.5L473.4,448.3z M496.2,470.9
		l10.2-12.6l-22.7-8.2l-0.1,0.2L496.2,470.9z"/>
</g>
</svg>
