<?xml version="1.0" encoding="utf-8"?>
<!-- Generator: Adobe Illustrator 19.1.0, SVG Export Plug-In . SVG Version: 6.00 Build 0)  -->
<svg version="1.1"
	 xmlns:x="extend" xmlns:i="ai" xmlns:graph="graphs" i:viewOrigin="54 -144" i:rulerOrigin="-54 648" i:pageBounds="54 -144 558 -648"
	 xmlns="http://www.w3.org/2000/svg" xmlns:xlink="http://www.w3.org/1999/xlink" xmlns:a="http://ns.adobe.com/AdobeSVGViewerExtensions/3.0/"
	 x="0px" y="0px" viewBox="0 0 504 504" enable-background="new 0 0 504 504" xml:space="preserve">
<metadata>
	<variableSets  xmlns="vars">
		<variableSet  varSetName="binding1" locked="none">
			<variables></variables>
			<v:sampleDataSets  xmlns:v="vars" xmlns="custom"></v:sampleDataSets>
		</variableSet>
	</variableSets>
</metadata>
<g id="Layer_1" i:layer="yes" i:dimmedPercent="50" i:rgbTrio="#4F008000FFFF">
	<path i:knockout="Off" opacity="0.14" fill="#FFFFFF" d="M452.9,14.4c0,0-62.6-13.7-197.7-14.4C120.1-0.7,57.5,14.4,57.5,14.4
		v282.5c0,27.1,8.6,54.5,25.7,81.5c14,22.2,33.3,43.6,57.4,63.8c42.6,35.6,90.9,59.3,113.1,61.6l1.5,0.1l1.5-0.1
		c22.2-2.3,70.5-26,113.1-61.6c24.1-20.2,43.5-41.7,57.4-63.8c17-27,25.7-54.4,25.7-81.5V14.4L452.9,14.4z"/>
	<g>
		<path i:knockout="Off" fill="#D0D2D3" d="M437.3,29.5c0,0-57.6-12.9-182.1-13.5C130.8,15.4,73.1,29.5,73.1,29.5v264.6
			c0,25.4,7.9,51.1,23.6,76.3c12.9,20.8,30.7,40.9,52.9,59.8c39.2,33.4,83.8,55.6,104.2,57.7l1.4,0.1l1.4-0.1
			c20.4-2.2,65-24.3,104.2-57.7c22.2-18.9,40-39,52.9-59.8c15.7-25.3,23.6-51,23.6-76.3V29.5L437.3,29.5z"/>
		<g>
			<defs>
				<path id="SVGID_1_" d="M409.9,97.4v211.5c0,83.7-124.2,149.7-154.7,152.7h0c-30.5-3-154.7-69-154.7-152.7V97.4
					c0,0,101.4-11.6,158.1-11.6C311.7,85.8,409.9,97.4,409.9,97.4z"/>
			</defs>
			<clipPath id="SVGID_2_">
				<use xlink:href="#SVGID_1_"  overflow="visible"/>
			</clipPath>
			<g clip-path="url(#SVGID_2_)">
				<polygon i:knockout="Off" fill="#2F5471" points="415.3,39.9 413.9,473.5 98,472.7 99.3,39.1 				"/>
				<path i:knockout="Off" fill="#FFFFFF" d="M99.3,39.1l-0.2,54.3L181,206.5c-34.7-0.1-82.2-0.2-82.2-0.2l-0.3,99.5
					c0,0,50.6,0.1,85.6,0.2L98.1,425.2L98,472.7l42.7,0.1l61.9-85.5c-0.1,43.1-0.3,85.6-0.3,85.6l109.5,0.3c0,0,0.1-42.1,0.3-84.9
					l61.8,85.1l40,0.1l0.2-56.2l-80.5-110.9c34.2,0.1,80.9,0.2,80.9,0.2l0.3-99.5c0,0-48-0.1-82.3-0.2l82.6-114.2l0.2-52.8
					l-39.5-0.1l-62.8,86.9c0.1-43.6,0.3-87,0.3-87l-109.5-0.3c0,0-0.1,43.2-0.3,86.6l-62.9-86.7L99.3,39.1z"/>
				<g>
					<path i:knockout="Off" fill="#EC1C24" d="M202.8,333.4L98,472.7l27.6,0.1l77.2-104.1C202.8,356,202.8,343.9,202.8,333.4z"/>
					<path i:knockout="Off" fill="#EC1C24" d="M312.8,179L415.3,39.9l0,0l-25.6-0.1l-76.8,103.9C312.8,156.3,312.8,168.5,312.8,179z
						"/>
					<path i:knockout="Off" fill="#EC1C24" d="M312.4,306.3c0,6.4-0.1,16.6-0.1,28.7l101.7,138.4l0,0l0.1-33.1l-96.7-134
						C315.6,306.3,313.9,306.3,312.4,306.3z"/>
					<path i:knockout="Off" fill="#EC1C24" d="M203.2,206.6c0-6.1,0-15.5,0.1-26.7L101.9,39.1l-2.6,0l-0.1,31.6l97.5,135.8
						C199.1,206.5,201.2,206.5,203.2,206.6z"/>
				</g>
				<polygon i:knockout="Off" fill="#EC1C24" points="227,39.4 226.4,227.9 98.8,227.6 98.6,284.5 226.2,284.8 225.6,473 
					288.6,473.2 289.2,284.9 414.5,285.3 414.7,228.4 289.4,228.1 290,39.6 				"/>
			</g>
		</g>
		<path i:knockout="Off" opacity="0.4" fill="#231F20"  a:adobe-blending-mode="darken" d="M396.9,371.9c0,0-55.3-8.8-141.7-8.4
			c-84.1,0.4-141.7,8.4-141.7,8.4v-61.2c0,0,57.6-13.5,143.7-13.1c85.6,0.4,139.7,13.1,139.7,13.1V371.9z"/>
		<path i:knockout="Off" opacity="0.4" fill="#231F20"  a:adobe-blending-mode="darken" d="M409.9,111.7c0,0-60.4-8.8-154.7-8.4
			c-91.8,0.4-154.7,8.4-154.7,8.4V50.5c0,0,62.9-13.5,156.9-13.1c93.5,0.4,152.6,13.1,152.6,13.1V111.7z"/>
		<path i:knockout="Off" fill="#FFFFFF" d="M413,180.5c0,0-61.6-10.6-157.8-10.9c-93.7-0.3-157.8,10.9-157.8,10.9v123.8
			c0,0,6.2,55.7,17.6,56.9c0,0,76.4-7.1,142.5-7.3c63.3-0.2,136.2,7.3,136.2,7.3c12.7-1.3,19.5-63.6,19.5-63.6V180.5z"/>
		<path i:knockout="Off" fill="#FFFFFF" d="M426.9,46.3c0,3.8,0,246,0,246c0,24.3-7.5,48.9-22.3,73.2
			c-12.1,19.9-28.9,39.2-49.9,57.3c-37,32-79,53.3-98.2,55.3l-1.3,0.1l-1.3-0.1c-19.2-2.1-61.3-23.3-98.2-55.3
			c-21-18.1-37.7-37.4-49.9-57.3c-14.8-24.2-22.3-48.9-22.3-73.2c0,0,0-241.3,0-246s2.6-8.2,7.8-9.2c18.8-3.6,72.1-11.8,163.9-11.3
			c91.5,0.5,144.7,8.1,163.7,11.4C424.3,38.1,426.9,42.5,426.9,46.3z M406.4,101.1c-19.9-3.1-76.7-8.7-151.2-9.1
			c-72.2-0.4-132,5.2-152.9,8.6l1.1,196.8c0,20.9,6.6,42.1,19.7,62.9c10.7,17.1,25.6,33.7,44.1,49.3c32.7,27.5,69.8,45.8,86.8,47.6
			l1.2,0.1l1.2-0.1c17-1.8,54.2-20,86.8-47.6c18.5-15.6,33.4-32.2,44.1-49.3c13.1-20.8,19.7-42,19.7-62.9L406.4,101.1z"/>
		<path i:knockout="Off" fill="#231F20" d="M208.5,216.3v-1.5l3.4-0.1l11.5-28.2l1.7,0l12.2,27.8l3.5-0.1v1.5l-14,0.2v-1.5l3.3-0.1
			l-4.1-9.3l-8.6,0.1l-3.9,9.4l3.2,0v1.5L208.5,216.3z M221.6,194.9l-3.6,8.8l7.4-0.1L221.6,194.9z"/>
		<path i:knockout="Off" fill="#231F20" d="M269.8,216l-25.5-0.2v-1.5l3.6,0v-25.4l-3.6,0v-1.5l13.7,0.1v1.5l-3.6,0v25.4l5.9,0
			c0.8,0,1.6-0.1,2.4-0.4c0.8-0.3,1.6-0.7,2.3-1.3c0.7-0.6,1.4-1.4,1.9-2.4c0.6-1,1-2.2,1.4-3.7l0.1-0.4l1.4,0V216z"/>
		<path i:knockout="Off" fill="#231F20" d="M301.6,216.7l-25.5-0.6v-1.5l3.6,0.1v-25.4l-3.6-0.1v-1.5l13.7,0.3v1.5l-3.6-0.1v25.4
			l5.9,0.1c0.8,0,1.6-0.1,2.4-0.3c0.8-0.2,1.6-0.7,2.3-1.3c0.7-0.6,1.4-1.4,1.9-2.4c0.6-1,1-2.2,1.4-3.6l0.1-0.4l1.4,0V216.7z"/>
		<g i:knockout="Off">
			<path i:knockout="Off" d="M102.7,217.1v-1.4l14.8-1.3c2.7-0.2,5.4-0.5,8.1-0.9c2.7-0.3,5.4-0.6,8.1-0.9c2.5-0.2,5.2-0.2,8,0.1
				c2.8,0.3,5.4,0.9,7.7,2c2.3,1,4.2,2.5,5.7,4.5c1.5,2,2.3,4.5,2.3,7.7c0,2.8-0.7,5.3-2.2,7.3c-1.5,2.1-3.2,3.8-5.3,5.2
				c-2.1,1.4-4.3,2.6-6.5,3.4c-2.3,0.9-4.2,1.5-5.7,1.8v0.4c2.5,0,5.2,0.2,7.9,0.6c2.7,0.4,5.3,1.2,7.5,2.4c2.3,1.2,4.2,2.9,5.7,5
				c1.5,2.2,2.3,5,2.3,8.4c0,3.8-1,7-2.9,9.7c-1.9,2.7-4.3,4.8-7,6.5c-2.8,1.7-5.7,3-8.9,3.8c-3.1,0.8-5.9,1.4-8.4,1.6
				c-2.7,0.2-5.5,0.5-8.2,0.6c-2.7,0.2-5.4,0.4-8.2,0.6l-14.8,1.3v-1.4l9-0.8v-67.2L102.7,217.1z M129.9,245c2.9-0.3,5.3-0.9,7-1.8
				c1.7-0.9,3-2.1,3.8-3.5c0.8-1.4,1.4-3,1.6-4.7c0.2-1.7,0.3-3.5,0.3-5.2c0-2.9-0.2-5.3-0.6-7.4c-0.4-2-1-3.7-2-4.9
				c-0.9-1.3-2.2-2.1-3.8-2.7c-1.6-0.5-3.6-0.7-6.1-0.4c-0.7,0.1-1.4,0.2-2.2,0.3c-0.7,0.1-1.4,0.3-2.2,0.4v30.4L129.9,245z
				 M131.6,282c2.1-0.2,4-0.6,5.6-1.2c1.7-0.6,3.1-1.7,4.3-3.2c1.2-1.5,2.1-3.5,2.7-6c0.6-2.5,0.9-5.8,0.9-9.8
				c0-1.1-0.1-2.6-0.3-4.4c-0.2-1.8-0.7-3.7-1.6-5.4c-0.9-1.8-2.2-3.2-4-4.4c-1.8-1.2-4.3-1.6-7.6-1.3l-5.7,0.5v35.5
				C127.7,282.3,129.6,282.2,131.6,282z"/>
			<path i:knockout="Off" d="M166.3,232.3v-1l10.4-0.4c1.9-0.1,3.8-0.2,5.7-0.3c1.9-0.1,3.8-0.3,5.7-0.3c1.8-0.1,3.7,0,5.7,0.3
				c2,0.3,3.8,0.8,5.5,1.7c1.6,0.8,3,2,4.1,3.4c1.1,1.5,1.6,3.4,1.6,5.6c0,1.8-0.4,3.4-1.2,4.8s-1.9,2.5-3.2,3.3
				c-1.3,0.9-2.8,1.6-4.4,2.1c-1.6,0.5-3.2,0.9-4.7,1.1v0.3c2.2,0.3,4.3,0.7,6,1c1.8,0.3,3.3,0.9,4.6,1.7c1.3,0.8,2.3,1.9,3.1,3.3
				c0.8,1.4,1.2,3.4,1.4,5.9c0.2,2.9,0.4,5.2,0.6,6.9c0.1,1.7,0.3,3.1,0.6,4c0.3,1,0.6,1.6,1,1.9c0.4,0.3,1.1,0.4,1.9,0.4
				c0.9,0,1.7-0.3,2.3-0.9c0.6-0.6,1.1-1.1,1.6-1.5l0.7,0.6c-0.5,0.5-0.9,0.9-1.3,1.3c-0.4,0.4-0.9,0.8-1.5,1.1
				c-0.6,0.3-1.3,0.5-2.1,0.7c-0.8,0.2-1.9,0.3-3.1,0.4c-2.5,0.1-4.5-0.2-5.9-1c-1.4-0.7-2.5-1.7-3.2-2.9c-0.7-1.2-1.1-2.4-1.3-3.8
				c-0.2-1.4-0.3-2.7-0.3-3.9c-0.1-1.9-0.2-3.7-0.4-5.5c-0.2-1.8-0.5-3.3-1.1-4.7c-0.6-1.4-1.5-2.4-2.7-3.2c-1.2-0.8-2.9-1.1-5-1
				l-4.5,0.2v24.8l6.3-0.3v1l-22.6,0.9v-1l6.3-0.3v-47.1L166.3,232.3z M185.5,252.8c2.1-0.1,3.7-0.4,4.9-1c1.2-0.6,2.1-1.4,2.7-2.3
				c0.6-1,1-2,1.1-3.2c0.2-1.2,0.2-2.4,0.2-3.7c0-2-0.1-3.7-0.4-5.2c-0.3-1.4-0.7-2.6-1.4-3.5c-0.6-0.9-1.5-1.6-2.6-2
				c-1.1-0.4-2.6-0.6-4.3-0.5c-0.5,0-1,0.1-1.5,0.1c-0.5,0.1-1,0.1-1.5,0.2v21.3L185.5,252.8z"/>
			<path i:knockout="Off" d="M237.2,229.3v1l-6.3,0.1v47.1l6.3-0.1v1l-22.6,0.3v-1l6.3-0.1v-47.1l-6.3,0.1v-1L237.2,229.3z"/>
			<path i:knockout="Off" d="M254.9,230.2c-1.7,0-3.2,0.1-4.5,0.5c-1.3,0.3-2.5,0.9-3.6,1.8c-1.1,0.8-2,2-2.8,3.5
				c-0.8,1.5-1.6,3.4-2.3,5.8l-0.9,0v-12.6l43.1,0.4v12.6l-0.9,0c-0.7-2.3-1.4-4.3-2.3-5.8c-0.8-1.5-1.8-2.7-2.8-3.6
				c-1.1-0.9-2.2-1.5-3.6-1.8c-1.3-0.4-2.8-0.5-4.5-0.6l-2.5,0v47.1l6.3,0.1v1l-22.6-0.2v-1l6.3,0.1v-47.1L254.9,230.2z"/>
			<path i:knockout="Off" d="M310.2,230.4v1l-6.3-0.2v47.1l6.3,0.2v1l-22.6-0.7v-1l6.3,0.2v-47.1l-6.3-0.2v-1L310.2,230.4z"/>
			<path i:knockout="Off" d="M316.6,264.3c0.1,0.6,0.3,1.3,0.5,2.2c0.2,0.9,0.6,1.9,1,2.9c0.4,1.1,1,2.1,1.6,3.3
				c0.7,1.1,1.5,2.2,2.4,3.1c1.1,1.1,2.1,2,3.1,2.6c1,0.6,1.9,1.1,2.8,1.4c0.9,0.3,1.7,0.5,2.5,0.5c0.8,0.1,1.5,0.1,2.2,0.2
				c2.4,0.1,4.4-0.1,6-0.8c1.6-0.7,2.8-1.5,3.7-2.6c0.9-1.1,1.5-2.2,1.9-3.4c0.4-1.2,0.6-2.3,0.6-3.2c0-1.7-0.4-3.1-1.2-4.3
				c-0.8-1.1-1.9-2.1-3.2-2.9c-1.3-0.8-2.8-1.5-4.5-2.1c-1.7-0.6-3.4-1.2-5.2-1.8c-1.8-0.6-3.5-1.3-5.2-2.1c-1.7-0.8-3.2-1.8-4.5-3
				c-1.3-1.2-2.4-2.6-3.2-4.3c-0.8-1.7-1.2-3.8-1.2-6.3c0-1.8,0.4-3.6,1.2-5.2c0.8-1.7,2-3.1,3.4-4.3c1.5-1.2,3.2-2.2,5.3-2.9
				c2-0.7,4.2-1,6.6-0.8c1.5,0.1,2.8,0.3,4,0.6s2.2,0.7,3,1c0.9,0.3,1.6,0.7,2.3,1c0.7,0.3,1.3,0.5,1.8,0.5c0.6,0,1.1,0,1.3-0.2
				c0.2-0.2,0.4-0.6,0.7-1.1l1.1,0.1v13.1l-0.9,0c-0.6-1.6-1.1-3.2-1.8-4.8c-0.6-1.6-1.4-3-2.4-4.4c-1-1.3-2.2-2.4-3.6-3.3
				c-1.5-0.9-3.3-1.3-5.6-1.5c-1.8-0.1-3.4,0.1-4.8,0.5c-1.4,0.4-2.6,1-3.5,1.8c-1,0.8-1.7,1.7-2.2,2.6c-0.5,1-0.8,2-0.8,3.1
				c0,1.6,0.4,3,1.3,4.1c0.8,1.1,2,2.1,3.3,2.9c1.4,0.8,2.9,1.6,4.7,2.2c1.8,0.6,3.6,1.3,5.4,2c1.9,0.7,3.7,1.4,5.4,2.3
				c1.8,0.8,3.3,1.8,4.7,3c1.4,1.2,2.5,2.6,3.3,4.2c0.8,1.6,1.3,3.6,1.3,5.8c0,2.2-0.5,4.4-1.4,6.3c-0.9,2-2.2,3.7-3.9,5.1
				c-1.7,1.4-3.7,2.5-6,3.3c-2.3,0.8-4.9,1.1-7.7,0.9c-1.4-0.1-2.8-0.3-4.2-0.6c-1.4-0.3-2.7-0.7-3.9-1.1c-1.2-0.4-2.3-0.7-3.2-1
				c-0.9-0.3-1.6-0.5-2.1-0.5c-0.6,0-1.1,0-1.4,0.2c-0.3,0.2-0.5,0.6-0.8,1.2l-1.1-0.1v-15.3L316.6,264.3z"/>
			<path i:knockout="Off" d="M379,234.7v1l-6.3-0.6v22.6l19.8,1.9V237l-6.3-0.6v-1l22.5,2.2v1l-6.3-0.6V285l6.3,0.6v1l-22.5-2.2v-1
				l6.3,0.6v-23.5l-19.8-1.9v23.5l6.3,0.6v1l-22.5-2.2v-1l6.3,0.6v-47.1l-6.3-0.6v-1L379,234.7z"/>
		</g>
		<polygon i:knockout="Off" fill="#231F20" points="102.6,335.8 102.6,334 107.7,333.5 107.7,296.7 102.6,297.2 102.6,295.4 
			117.6,293.9 126.8,319.8 136.2,292.1 150.9,290.7 150.9,292.5 145.8,293 145.8,329.8 150.9,329.4 150.9,331.1 131.8,333 
			131.8,331.2 136.8,330.7 136.8,296 124,333.7 122.4,333.9 109.5,298.5 109.5,333.4 114.6,332.9 114.6,334.6 		"/>
		<path i:knockout="Off" fill="#231F20" d="M164.8,331c-1.7,0-3.3-0.3-4.8-0.8c-1.8-0.7-3.4-1.6-4.8-2.8c-1.4-1.2-2.5-2.7-3.3-4.5
			c-0.8-1.7-1.2-3.7-1.2-5.8c0-2.3,0.5-4.4,1.4-6.3c0.9-1.9,2.1-3.5,3.5-4.9c1.4-1.4,3-2.5,4.8-3.3c1.8-0.8,3.5-1.3,5.2-1.4
			c1.8-0.1,3.7,0.1,5.5,0.7c1.8,0.6,3.4,1.5,4.8,2.7c1.4,1.2,2.5,2.7,3.4,4.5c0.9,1.8,1.3,3.8,1.3,6.1c0,2-0.4,3.9-1.2,5.8
			c-0.8,1.8-1.9,3.5-3.3,4.9c-1.4,1.4-3,2.6-4.7,3.5c-1.8,0.9-3.7,1.4-5.7,1.5C165.4,331,165.1,331,164.8,331z M157.9,323.4
			c0.3,1.8,0.8,3.1,1.5,4.1c0.7,1,1.5,1.7,2.6,2c1,0.4,2.3,0.5,3.7,0.4c1.9-0.1,3.4-0.6,4.5-1.3c1.1-0.8,1.9-1.8,2.4-3.1
			c0.5-1.3,0.9-2.8,1-4.5c0.1-1.7,0.2-3.6,0.2-5.6c0-1.8-0.1-3.5-0.2-5.2c-0.1-1.6-0.4-3.1-1-4.3c-0.5-1.2-1.4-2.2-2.5-2.8
			c-1.1-0.7-2.6-0.9-4.5-0.8c-1.8,0.1-3.2,0.5-4.3,1.3c-1.1,0.7-1.9,1.8-2.5,3c-0.6,1.3-0.9,2.8-1.1,4.5c-0.2,1.7-0.3,3.6-0.3,5.6
			C157.4,319.4,157.6,321.6,157.9,323.4z"/>
		<path i:knockout="Off" fill="#231F20" d="M186.6,329.4v-1.5l3.6-0.1v-25.5l-0.9,0c-0.9,0-1.7,0.2-2.4,0.4c-0.7,0.2-1.3,0.5-1.8,1
			c-0.5,0.5-1,1.1-1.5,1.9c-0.4,0.8-0.9,1.9-1.2,3.2l-0.1,0.3l-1.4,0.1V301l25.3-1v8.1l-1.4,0.1l-0.1-0.4c-0.4-1.3-0.8-2.3-1.2-3.1
			c-0.4-0.8-0.9-1.4-1.5-1.8c-0.5-0.4-1.1-0.7-1.8-0.8c-0.7-0.2-1.5-0.2-2.4-0.2l-0.9,0v25.5l3.6-0.1v1.5L186.6,329.4z"/>
		<path i:knockout="Off" fill="#231F20" d="M221,328.9c-1.9,0-3.7-0.3-5.4-1c-1.8-0.7-3.4-1.7-4.8-3c-1.4-1.3-2.5-2.8-3.3-4.6
			c-0.8-1.8-1.2-3.7-1.2-5.8c0-2.3,0.5-4.4,1.4-6.2c0.9-1.8,2.1-3.5,3.5-4.8c1.4-1.3,3.1-2.4,4.8-3.1c1.8-0.7,3.5-1.1,5.3-1.2
			c1.8,0,3.7,0.3,5.5,0.9c1.8,0.7,3.4,1.6,4.8,2.9c1.4,1.3,2.5,2.8,3.4,4.6c0.9,1.8,1.3,3.9,1.3,6.2c0,2-0.4,3.9-1.2,5.7
			c-0.8,1.8-1.9,3.4-3.3,4.8c-1.4,1.4-3,2.5-4.8,3.3c-1.8,0.8-3.7,1.3-5.7,1.3C221.2,328.9,221.1,328.9,221,328.9z M213.6,320.9
			c0.3,1.8,0.8,3.2,1.5,4.2c0.7,1,1.5,1.7,2.6,2.1c1,0.4,2.3,0.6,3.7,0.6c1.9,0,3.4-0.4,4.5-1.1c1.1-0.7,1.9-1.7,2.4-3
			c0.5-1.3,0.9-2.8,1-4.5c0.1-1.7,0.2-3.6,0.2-5.6c0-1.8-0.1-3.5-0.2-5.2c-0.1-1.6-0.4-3.1-1-4.3c-0.5-1.2-1.4-2.2-2.5-2.9
			c-1.1-0.7-2.6-1.1-4.6-1c-1.8,0-3.3,0.4-4.3,1.1c-1.1,0.7-1.9,1.7-2.5,2.9c-0.6,1.3-0.9,2.7-1.1,4.4c-0.2,1.7-0.3,3.6-0.3,5.6
			C213.1,317,213.2,319.2,213.6,320.9z"/>
		<path i:knockout="Off" fill="#231F20" d="M259.8,328.6C259.8,328.6,259.8,328.6,259.8,328.6c-1.5,0-2.7-0.2-3.6-0.7
			c-0.9-0.5-1.5-1.1-2-1.9c-0.4-0.7-0.7-1.5-0.8-2.4c-0.1-0.8-0.2-1.6-0.2-2.3c-0.1-1-0.1-2.1-0.2-3.1c-0.1-0.9-0.3-1.8-0.6-2.5
			c-0.3-0.7-0.7-1.2-1.3-1.6c-0.6-0.4-1.4-0.6-2.5-0.6h-2.1v13l3.6,0v1.5l-13.7,0v-1.5l3.6,0V301l-3.6,0v-1.5l6.3,0
			c1.1,0,2.1,0,3.2-0.1c2.1-0.1,4.2-0.2,6.5,0.3c1.2,0.2,2.3,0.6,3.2,1.1c1,0.5,1.8,1.3,2.5,2.2c0.7,0.9,1,2.1,1,3.5
			c0,1.1-0.3,2.1-0.8,2.9c-0.5,0.8-1.2,1.5-2,2c-0.8,0.5-1.6,0.9-2.6,1.1c-0.2,0.1-0.4,0.1-0.6,0.1c0.4,0.1,0.9,0.2,1.3,0.3
			c1,0.2,2,0.6,2.7,1.1c0.8,0.5,1.4,1.2,1.9,2.1c0.5,0.9,0.7,2.1,0.8,3.5l0.3,3.9c0.1,0.9,0.2,1.7,0.3,2.2c0.2,0.6,0.3,0.8,0.4,0.8
			c0.2,0.1,0.4,0.2,0.8,0.2c0.4,0,0.7-0.1,1-0.3c0.3-0.3,0.6-0.6,0.9-0.8l0.3-0.3l1.1,1l-0.4,0.4c-0.3,0.3-0.5,0.5-0.8,0.7
			c-0.3,0.2-0.6,0.5-1,0.6c-0.4,0.2-0.8,0.3-1.3,0.4C261.1,328.6,260.5,328.6,259.8,328.6z M248.1,312.5c1.2,0,2.1-0.2,2.8-0.5
			c0.7-0.3,1.2-0.7,1.5-1.3c0.3-0.5,0.5-1.1,0.6-1.8c0.1-0.7,0.1-1.4,0.1-2.1c0-1.1-0.1-2.1-0.2-2.9s-0.4-1.5-0.8-2
			c-0.4-0.5-0.9-0.9-1.5-1.2c-0.6-0.3-1.4-0.4-2.4-0.4c-0.3,0-0.6,0-0.9,0c-0.3,0-0.6,0.1-0.9,0.1v12H248.1z"/>
		<path i:knockout="Off" fill="#231F20" d="M291.6,329.4c-0.2,0-0.4,0-0.5,0c-1.2,0-2.3-0.2-3.5-0.4c-1.2-0.3-2.2-0.5-3.2-0.8
			c-1-0.3-1.9-0.5-2.6-0.8c-0.9-0.3-1.3-0.3-1.5-0.4c-0.6,0-0.7,0.1-0.8,0.1c-0.1,0-0.2,0.2-0.4,0.8l-0.1,0.3l-1.7,0V315l1.7,0
			l0.1,0.4c0.1,0.4,0.2,1,0.4,1.7c0.2,0.7,0.4,1.5,0.8,2.3c0.3,0.8,0.8,1.7,1.3,2.5c0.5,0.8,1.1,1.6,1.9,2.4
			c0.8,0.8,1.6,1.5,2.4,1.9c0.8,0.4,1.5,0.8,2.2,1c0.7,0.2,1.3,0.3,1.9,0.4c0.6,0,1.2,0.1,1.8,0.1c1.9,0.1,3.4-0.2,4.6-0.7
			c1.2-0.5,2.1-1.2,2.8-2c0.7-0.8,1.2-1.7,1.4-2.6c0.3-0.9,0.4-1.7,0.4-2.4c0-1.3-0.3-2.3-0.9-3.1c-0.6-0.8-1.4-1.6-2.4-2.1
			c-1-0.6-2.2-1.1-3.6-1.5l-4.2-1.3c-1.5-0.5-2.9-1-4.3-1.6c-1.4-0.6-2.7-1.4-3.8-2.4c-1.1-1-2-2.2-2.7-3.6c-0.7-1.4-1-3.2-1-5.2
			c0-1.5,0.4-3,1-4.5c0.7-1.4,1.7-2.7,2.9-3.7c1.2-1.1,2.7-1.9,4.4-2.5c1.7-0.6,3.5-0.9,5.5-0.9c1.3,0,2.4,0.2,3.3,0.4
			c0.9,0.2,1.8,0.5,2.5,0.8c0.7,0.3,1.3,0.5,1.9,0.8c0.5,0.2,0.9,0.3,1.3,0.3c0.5,0,0.7-0.1,0.7-0.1c0.1-0.1,0.2-0.2,0.4-0.7
			l0.1-0.3l1.7,0V300l-1.6,0l-0.1-0.3c-0.4-1.3-0.9-2.6-1.4-3.8c-0.5-1.2-1.1-2.3-1.8-3.3c-0.7-1-1.7-1.8-2.8-2.4
			c-1.1-0.6-2.5-0.9-4.3-1c-1.4,0-2.7,0.1-3.7,0.5c-1.1,0.4-2,0.8-2.7,1.4c-0.7,0.6-1.3,1.3-1.6,2c-0.4,0.7-0.6,1.5-0.6,2.3
			c0,1.2,0.3,2.1,0.9,2.9c0.6,0.8,1.5,1.5,2.5,2.1c1.1,0.6,2.3,1.2,3.7,1.6c1.4,0.5,2.9,1,4.4,1.5c1.5,0.5,3,1.1,4.4,1.7
			c1.5,0.6,2.8,1.4,3.9,2.4c1.1,0.9,2.1,2.1,2.8,3.4c0.7,1.3,1.1,3,1.1,4.9c0,1.9-0.4,3.7-1.2,5.3c-0.8,1.7-1.9,3.1-3.3,4.3
			c-1.4,1.2-3.1,2.2-5,2.9C295.7,329,293.7,329.4,291.6,329.4z"/>
		<polygon i:knockout="Off" fill="#231F20" points="338.6,330.4 324.9,329.8 324.9,328.2 328.5,328.4 328.5,316.1 318.3,315.7 
			318.3,327.9 321.8,328.1 321.8,329.6 308.1,329 308.1,327.5 311.7,327.6 311.7,302.1 308.1,302 308.1,300.4 321.8,301.1 
			321.8,302.6 318.3,302.4 318.3,314.2 328.5,314.6 328.5,302.9 324.9,302.7 324.9,301.2 338.6,301.8 338.6,303.4 335.1,303.2 
			335.1,328.7 338.6,328.9 		"/>
		<path i:knockout="Off" fill="#231F20" d="M354.6,332c-0.3,0-0.7,0-1,0c-2-0.1-3.9-0.6-5.7-1.5c-1.8-0.9-3.4-2-4.8-3.4
			c-1.4-1.4-2.5-3-3.3-4.9c-0.8-1.8-1.2-3.8-1.2-5.9c0-2.3,0.5-4.3,1.4-6.1l0,0c0.9-1.8,2.1-3.3,3.5-4.5c1.4-1.2,3.1-2.1,4.8-2.7
			c1.8-0.6,3.6-0.8,5.3-0.7c1.8,0.1,3.7,0.6,5.4,1.4c1.8,0.8,3.4,1.9,4.8,3.3c1.4,1.4,2.5,3,3.4,4.9c0.9,1.9,1.3,4,1.3,6.3
			c0,2-0.4,3.9-1.2,5.6c-0.8,1.7-1.9,3.3-3.3,4.5c-1.4,1.3-3,2.2-4.8,2.9C357.9,331.7,356.3,332,354.6,332z M345.9,323.4
			c0.3,1.8,0.8,3.2,1.4,4.3c0.7,1.1,1.5,1.9,2.6,2.4c1,0.5,2.3,0.8,3.7,0.9c1.9,0.1,3.4-0.1,4.5-0.8c1.1-0.6,1.9-1.6,2.4-2.8
			c0.5-1.2,0.9-2.7,1-4.4c0.1-1.7,0.2-3.6,0.2-5.6c0-1.8-0.1-3.5-0.2-5.2c-0.1-1.6-0.4-3.1-1-4.4c-0.5-1.3-1.4-2.3-2.5-3.2
			c-1.1-0.8-2.6-1.3-4.5-1.4c-1.8-0.1-3.2,0.1-4.3,0.7c-1.1,0.6-1.9,1.5-2.5,2.7c-0.6,1.2-0.9,2.6-1.1,4.3c-0.2,1.7-0.3,3.6-0.3,5.6
			C345.5,319.3,345.6,321.6,345.9,323.4z"/>
		<polygon i:knockout="Off" fill="#231F20" points="395.6,336.1 393.8,335.9 387.7,317.9 381.6,334.7 379.8,334.5 370.2,305.5 
			366.9,305.1 366.9,303.6 379.7,304.9 379.7,306.4 377.1,306.2 383.4,325.3 386.9,315.6 384.1,306.9 381.9,306.6 381.9,305.1 
			394.4,306.4 394.4,307.9 391,307.6 397.3,326.8 403.8,308.9 400.7,308.6 400.7,307 408.8,307.8 408.8,309.4 405.5,309 		"/>
		<g i:knockout="Off">
			<path i:knockout="Off" fill="#606060" d="M119.9,55.1c0-0.1,0.1-0.2,0.1-0.3c0.1-0.1,0.1-0.2,0.3-0.2c0.1-0.1,0.3-0.1,0.5-0.2
				c0.2-0.1,0.5-0.1,0.9-0.2c0.2,0,0.4-0.1,0.7-0.1c0.3,0,0.6-0.1,0.9-0.1c0.3-0.1,0.7-0.1,1-0.2c0.3-0.1,0.6-0.1,0.9-0.2
				c0,0.2,0.1,0.4,0.1,0.5c0,0.3-0.1,0.5-0.3,0.6c-0.8,0.2-1.3,0.4-1.6,0.6c-0.3,0.2-0.4,0.5-0.4,0.8c0,0,0,0.3,0,0.9
				c0,0.6,0.1,1.5,0.1,2.8c0.1,1.3,0.1,3,0.2,5.1c0.1,2.1,0.2,4.8,0.3,8c0,0.4,0.2,0.7,0.4,0.9c0.3,0.2,0.8,0.3,1.6,0.3
				c0.1,0,0.2,0.1,0.2,0.1c0.1,0.1,0.1,0.2,0.1,0.3c0,0.1,0,0.3-0.1,0.5c-0.8,0-1.4,0.1-2.1,0.1c-0.6,0-1.2,0.1-1.7,0.2
				c-0.2,0-0.5,0.1-0.8,0.1c-0.3,0.1-0.7,0.1-1,0.2c-0.4,0.1-0.7,0.1-1.1,0.2c-0.3,0.1-0.6,0.1-0.9,0.2c0-0.2-0.1-0.4-0.1-0.5
				c0-0.3,0.1-0.5,0.3-0.6c0.9-0.3,1.5-0.5,1.8-0.7c0.3-0.2,0.5-0.5,0.5-0.9c0-0.1,0-0.5,0-1.2c0-0.7-0.1-1.6-0.1-2.7
				c-0.1-1.1-0.1-2.2-0.2-3.4c-0.1-1.2-0.1-2.4-0.2-3.5c-0.1-1.1-0.1-2-0.1-2.8c0-0.8-0.1-1.3-0.1-1.4l-7.1,18.1
				c-0.1,0.2-0.2,0.4-0.2,0.5s-0.2,0.2-0.3,0.2c-0.2,0-0.2,0-0.3,0l-7.9-17.4c0,0.2,0,0.8-0.1,1.6c0,0.8-0.1,1.8-0.1,3
				c-0.1,1.2-0.1,2.4-0.2,3.7c-0.1,1.3-0.1,2.5-0.2,3.6c-0.1,1.1-0.1,2-0.1,2.8c0,0.7,0,1.1,0,1.2c0,0.7,0.7,1.1,2.2,1.1
				c0.2,0,0.3,0.2,0.3,0.5c0,0.1,0,0.3-0.1,0.5c-0.6,0-1.2,0.1-1.7,0.1c-0.6,0-1.1,0.1-1.5,0.1c-0.3,0-0.8,0.1-1.4,0.2
				c-0.6,0.1-1.1,0.2-1.7,0.3c0-0.2-0.1-0.4-0.1-0.5c0-0.3,0.1-0.5,0.3-0.6c0.6-0.2,1.1-0.4,1.4-0.6c0.4-0.3,0.6-0.6,0.6-1
				c0-0.2,0-0.7,0.1-1.7c0-0.9,0.1-2,0.1-3.2c0.1-1.2,0.1-2.6,0.2-4c0.1-1.4,0.1-2.7,0.2-3.9c0.1-1.2,0.1-2.2,0.1-3
				c0-0.8,0-1.2,0-1.2c0-0.3-0.1-0.6-0.4-0.7c-0.3-0.1-0.8-0.2-1.5-0.3c-0.2,0-0.3-0.2-0.3-0.5c0-0.1,0-0.3,0.1-0.5
				c0.3,0,0.6,0,1-0.1c0.4,0,0.7,0,1.1-0.1c0.4,0,0.7-0.1,1-0.1c0.3,0,0.6-0.1,0.8-0.1c0.4,0,0.7-0.1,0.9-0.1c0.2,0,0.4,0,0.5,0.1
				c0.1,0,0.2,0.1,0.3,0.2c0.1,0.1,0.1,0.2,0.1,0.2l6.9,15.4L119.9,55.1z"/>
			<path i:knockout="Off" fill="#606060" d="M131.4,74.6c-0.4,0-0.7,0.1-1.1,0.1c-0.4,0-0.7,0.1-1.1,0.2c-0.3,0.1-0.6,0.1-0.8,0.1
				c-0.2,0-0.4,0.1-0.5,0.1c0,0,0-0.1,0-0.2c0-0.1,0-0.2,0-0.3c0-0.2,0.1-0.4,0.3-0.4c0.6-0.2,1-0.3,1.4-0.5
				c0.3-0.2,0.5-0.5,0.5-0.8v-8.9c0-0.7-0.1-1.1-0.3-1.4c-0.2-0.3-0.7-0.4-1.5-0.4c-0.3,0-0.4-0.2-0.4-0.4c0-0.1,0-0.3,0.1-0.4
				c0.3,0,0.7-0.1,1.2-0.2c0.5-0.1,0.9-0.2,1.3-0.2c0.5-0.1,1-0.3,1.3-0.4c0.4-0.1,0.7-0.2,0.9-0.2c0.3,0,0.5,0.1,0.5,0.4
				c0,0.3,0,0.7-0.1,1.1c-0.1,0.4-0.1,1-0.1,1.7v9c0,0.3,0.2,0.6,0.5,0.7c0.3,0.1,0.8,0.2,1.4,0.3c0.2,0,0.3,0.1,0.3,0.4
				c0,0.1,0,0.2,0,0.3c0,0.1,0,0.2,0,0.2c-0.1,0-0.2,0-0.4,0c-0.2,0-0.5,0-0.8,0c-0.3,0-0.7,0-1.1,0.1
				C132.2,74.5,131.8,74.5,131.4,74.6z M129.5,55.1c0-0.5,0.2-1,0.5-1.4c0.4-0.4,0.8-0.6,1.3-0.7c0.5-0.1,1,0.1,1.3,0.4
				c0.3,0.3,0.5,0.8,0.5,1.3c0,0.6-0.2,1-0.5,1.4c-0.3,0.4-0.8,0.6-1.3,0.6c-0.5,0.1-1-0.1-1.3-0.4
				C129.7,56.1,129.5,55.7,129.5,55.1z"/>
			<path i:knockout="Off" fill="#606060" d="M150.3,71c0,0.3,0.2,0.6,0.6,0.7c0.4,0.1,0.8,0.2,1.3,0.3c0.2,0,0.3,0.2,0.3,0.4
				c0,0.1,0,0.3-0.1,0.5c-0.6,0-1.1,0-1.7,0c-0.5,0-1.1,0-1.8,0.1c-0.6,0-1.2,0.1-1.7,0.2c-0.6,0.1-1.1,0.2-1.7,0.3
				c0-0.2-0.1-0.4-0.1-0.5c0-0.2,0.1-0.4,0.3-0.4c0.5-0.1,0.9-0.3,1.2-0.5c0.4-0.2,0.6-0.5,0.6-0.8v-6.4c0-0.5,0-1-0.1-1.5
				c-0.1-0.5-0.2-0.8-0.4-1.2c-0.2-0.3-0.4-0.6-0.7-0.7c-0.3-0.2-0.7-0.2-1.2-0.2c-0.5,0-1.1,0.2-1.6,0.4c-0.5,0.2-1,0.5-1.4,0.9
				c-0.4,0.4-0.7,0.9-1,1.4c-0.2,0.5-0.4,1.1-0.4,1.8v5.9c0,0.3,0.2,0.6,0.6,0.7c0.4,0.1,0.8,0.2,1.2,0.3c0.2,0,0.3,0.2,0.3,0.4
				c0,0.1,0,0.3-0.1,0.5c-0.6,0-1.1,0-1.7,0c-0.5,0-1.1,0-1.7,0.1c-0.6,0.1-1.2,0.1-1.8,0.2c-0.6,0.1-1.1,0.2-1.7,0.3
				c0-0.2-0.1-0.4-0.1-0.5c0-0.2,0.1-0.4,0.3-0.4c0.5-0.1,0.9-0.3,1.3-0.5c0.4-0.2,0.6-0.5,0.6-0.8v-8.9c0-0.7-0.1-1.1-0.3-1.4
				c-0.2-0.3-0.7-0.4-1.5-0.4c-0.3,0-0.4-0.2-0.4-0.4c0-0.1,0-0.3,0.1-0.4c0.3,0,0.7-0.1,1.2-0.1c0.5-0.1,0.9-0.1,1.3-0.2
				c0.5-0.1,1-0.3,1.3-0.4c0.4-0.1,0.7-0.2,0.9-0.2c0.3,0,0.5,0.1,0.5,0.5c0,0.3,0,0.7-0.1,1.1c-0.1,0.4-0.1,1-0.1,1.7
				c0.9-1.1,1.8-2,2.7-2.6c0.9-0.6,1.8-1,2.8-1.1c1.3-0.1,2.3,0.2,3,0.9c0.7,0.7,1,1.8,1,3.1V71z"/>
			<path i:knockout="Off" fill="#606060" d="M157,72.4c-0.4,0-0.8,0.1-1.1,0.1c-0.4,0-0.7,0.1-1.1,0.1c-0.3,0-0.6,0.1-0.8,0.1
				c-0.2,0-0.4,0.1-0.5,0.1c0,0,0-0.1,0-0.2c0-0.1,0-0.2,0-0.3c0-0.2,0.1-0.4,0.3-0.4c0.6-0.1,1-0.3,1.4-0.5
				c0.3-0.2,0.5-0.4,0.5-0.8v-8.9c0-0.7-0.1-1.1-0.3-1.4c-0.2-0.3-0.7-0.4-1.5-0.4c-0.3,0-0.4-0.2-0.4-0.4c0-0.1,0-0.3,0.1-0.4
				c0.3,0,0.7-0.1,1.2-0.1c0.5-0.1,0.9-0.1,1.3-0.2c0.5-0.1,1-0.2,1.3-0.4c0.4-0.1,0.7-0.2,0.9-0.2c0.3,0,0.5,0.1,0.5,0.5
				c0,0.3,0,0.7-0.1,1.1c-0.1,0.4-0.1,1-0.1,1.7v9c0,0.3,0.2,0.6,0.5,0.7c0.3,0.1,0.8,0.2,1.4,0.3c0.2,0,0.3,0.2,0.3,0.4
				c0,0.1,0,0.2,0,0.3c0,0.1,0,0.2,0,0.2c-0.1,0-0.2,0-0.4,0c-0.2,0-0.5,0-0.8,0c-0.3,0-0.7,0-1.1,0C157.8,72.4,157.4,72.4,157,72.4
				z M155.1,52.9c0-0.5,0.2-1,0.5-1.4c0.4-0.4,0.8-0.6,1.4-0.7c0.5,0,1,0.1,1.3,0.5c0.3,0.4,0.5,0.8,0.5,1.3c0,0.6-0.2,1-0.5,1.4
				c-0.3,0.4-0.8,0.6-1.3,0.6c-0.5,0-1-0.1-1.4-0.4C155.3,54,155.1,53.5,155.1,52.9z"/>
			<path i:knockout="Off" fill="#606060" d="M168,61.1c0-1.5,0.3-2.9,0.8-4.3c0.5-1.4,1.3-2.6,2.2-3.6c0.9-1,2-1.9,3.3-2.5
				c1.2-0.7,2.5-1,3.9-1.1c1.9-0.1,3.5,0.1,5,0.6c1.4,0.5,2.6,1.3,3.5,2.2c0.9,1,1.6,2.1,2.1,3.4c0.5,1.3,0.7,2.7,0.7,4.1
				c0,1.7-0.3,3.3-0.8,4.7c-0.6,1.4-1.3,2.6-2.3,3.6c-1,1-2.2,1.8-3.5,2.3c-1.3,0.6-2.8,0.9-4.3,1c-1.5,0.1-3-0.1-4.2-0.6
				c-1.3-0.5-2.4-1.1-3.3-2.1c-0.9-0.9-1.6-2-2.2-3.4C168.2,64.2,168,62.7,168,61.1z M179.2,69.9c1-0.1,2-0.3,2.8-0.7
				c0.8-0.4,1.6-1,2.2-1.7c0.6-0.7,1.1-1.6,1.4-2.6c0.3-1,0.5-2,0.5-3.2c0-1.6-0.2-3-0.5-4.3c-0.3-1.3-0.8-2.5-1.5-3.4
				c-0.7-1-1.5-1.7-2.5-2.2c-1-0.5-2.2-0.7-3.5-0.7c-0.9,0-1.7,0.3-2.6,0.6c-0.8,0.4-1.5,0.9-2.2,1.6c-0.6,0.7-1.1,1.5-1.5,2.4
				c-0.4,1-0.6,2-0.6,3.3c0,1.6,0.2,3.1,0.5,4.5c0.3,1.4,0.9,2.5,1.5,3.5c0.7,1,1.5,1.7,2.5,2.2C176.8,69.7,177.9,70,179.2,69.9z"/>
			<path i:knockout="Off" fill="#606060" d="M207.2,66.4c0.3-0.8,0.6-1.7,1-2.5c0.3-0.9,0.7-1.7,1-2.5c0.3-0.8,0.5-1.5,0.7-2.1
				c0.2-0.6,0.3-1.2,0.3-1.6c0-0.2-0.1-0.3-0.3-0.4c-0.2-0.1-0.4-0.2-0.6-0.2c-0.2-0.1-0.4-0.1-0.6-0.2c-0.2-0.1-0.3-0.2-0.3-0.4
				c0-0.2,0-0.3,0.1-0.4c0.9,0,1.8,0,2.7,0c0.4,0,0.8,0,1.2-0.1c0.3,0,0.7-0.1,1.1-0.1c0,0.1,0.1,0.1,0.1,0.2c0,0.1,0,0.2,0,0.2
				c0,0.3-0.1,0.4-0.4,0.5c-0.2,0.1-0.4,0.1-0.6,0.2c-0.2,0.1-0.3,0.1-0.4,0.3c-0.1,0.1-0.2,0.3-0.3,0.5c-0.1,0.2-0.2,0.5-0.3,0.8
				l-4.5,11.8c-0.2,0-0.3,0.1-0.5,0.1c-0.2,0-0.3,0-0.4-0.1c-0.1-0.1-0.2-0.4-0.4-0.9l-3.7-8.8l-3.8,10c-0.2,0.1-0.4,0.1-0.6,0.1
				c-0.2,0-0.4-0.1-0.6-0.4c-0.1-0.3-0.3-0.6-0.5-1l-4.2-10.1c-0.1-0.3-0.3-0.6-0.4-0.8c-0.1-0.2-0.2-0.3-0.3-0.4
				c-0.1-0.1-0.3-0.2-0.4-0.2c-0.2,0-0.4-0.1-0.6-0.1c-0.3-0.1-0.4-0.2-0.4-0.5c0-0.2,0-0.3,0.1-0.4c0.4,0,0.9,0,1.4,0
				c0.5,0,1,0,1.5,0l1.1,0c0.5,0,0.9,0,1.3-0.1c0.4,0,0.8-0.1,1.3-0.1c0,0.1,0.1,0.1,0.1,0.2c0,0.1,0,0.2,0,0.2
				c0,0.3-0.1,0.4-0.4,0.4c-1,0.2-1.5,0.4-1.5,0.8c0,0.3,0.3,1.1,0.8,2.4l2.5,6.2l3.9-10.3c0.1-0.2,0.2-0.4,0.4-0.4
				c0.1,0,0.2,0,0.3,0.1L207.2,66.4z"/>
			<path i:knockout="Off" fill="#606060" d="M228.3,67.7c0,0.3,0.2,0.6,0.6,0.7c0.4,0.2,0.8,0.3,1.3,0.4c0.2,0,0.3,0.2,0.3,0.4
				c0,0.1,0,0.3-0.1,0.5c-0.6,0-1.1-0.1-1.7-0.1c-0.5,0-1.1,0-1.8,0c-0.6,0-1.2,0-1.7,0.1c-0.6,0-1.1,0.1-1.7,0.1
				c0-0.2-0.1-0.4-0.1-0.5c0-0.2,0.1-0.3,0.3-0.4c0.5-0.1,0.9-0.2,1.2-0.4c0.4-0.2,0.6-0.4,0.6-0.7v-6.4c0-0.5,0-1-0.1-1.5
				c-0.1-0.5-0.2-0.8-0.4-1.2c-0.2-0.3-0.4-0.6-0.7-0.8c-0.3-0.2-0.7-0.3-1.2-0.3c-0.5,0-1.1,0.1-1.6,0.3c-0.5,0.2-1,0.5-1.4,0.8
				c-0.4,0.4-0.7,0.8-1,1.3c-0.2,0.5-0.4,1.1-0.4,1.8v5.9c0,0.3,0.2,0.6,0.6,0.7c0.4,0.2,0.8,0.3,1.2,0.4c0.2,0,0.3,0.2,0.3,0.4
				c0,0.1,0,0.3-0.1,0.5c-0.6,0-1.1-0.1-1.7-0.1c-0.5,0-1.1,0-1.7,0c-0.6,0-1.2,0-1.8,0.1c-0.6,0-1.1,0.1-1.7,0.1
				c0-0.2-0.1-0.4-0.1-0.5c0-0.2,0.1-0.3,0.3-0.4c0.5-0.1,0.9-0.2,1.3-0.4c0.4-0.2,0.6-0.4,0.6-0.8V59c0-0.7-0.1-1.1-0.3-1.4
				c-0.2-0.3-0.7-0.4-1.5-0.5c-0.3,0-0.4-0.2-0.4-0.4c0-0.1,0-0.3,0.1-0.4c0.3,0,0.7,0,1.2-0.1c0.5,0,0.9-0.1,1.3-0.1
				c0.5-0.1,1-0.2,1.4-0.3c0.4-0.1,0.7-0.2,0.9-0.2c0.3,0,0.5,0.2,0.5,0.5c0,0.3,0,0.7-0.1,1.1c-0.1,0.4-0.1,1-0.1,1.7
				c0.9-1.1,1.8-1.9,2.7-2.5c0.9-0.6,1.8-0.9,2.8-0.9c1.3,0,2.3,0.3,3,1.1c0.7,0.8,1,1.8,1,3.2V67.7z"/>
			<path i:knockout="Off" fill="#606060" d="M243.4,66.4c0.2-0.2,0.3-0.2,0.5-0.2c0.2,0,0.4,0.2,0.6,0.6c-0.3,0.4-0.6,0.8-1,1.1
				c-0.4,0.4-0.8,0.7-1.3,1c-0.5,0.3-1.1,0.5-1.7,0.7c-0.7,0.2-1.4,0.3-2.3,0.3c-0.9,0-1.7-0.1-2.5-0.4c-0.8-0.3-1.5-0.7-2.1-1.3
				c-0.6-0.6-1.1-1.3-1.4-2.2c-0.4-0.9-0.5-1.9-0.5-3.1c0-1.1,0.2-2.1,0.6-3.1c0.4-0.9,1-1.7,1.6-2.4c0.7-0.7,1.4-1.2,2.2-1.6
				c0.8-0.4,1.6-0.6,2.4-0.6c2,0,3.5,0.6,4.4,1.7s1.4,2.7,1.4,4.6c0,0.1-0.1,0.2-0.2,0.2l-9.4,0.5c0,0.8,0.1,1.6,0.4,2.3
				c0.2,0.7,0.6,1.3,1,1.9c0.4,0.5,1,0.9,1.6,1.2c0.6,0.3,1.3,0.4,2.1,0.4c0.7,0,1.4-0.2,2-0.5C242.4,67.3,243,66.9,243.4,66.4z
				 M238.1,56.4c-1.1,0-1.9,0.4-2.5,1.3c-0.6,0.9-0.9,2-0.9,3.3l6.1-0.3c0.3,0,0.5-0.1,0.5-0.4c0-0.4-0.1-0.8-0.2-1.3
				c-0.1-0.5-0.3-0.9-0.6-1.3c-0.3-0.4-0.6-0.7-1-0.9C239.1,56.6,238.7,56.4,238.1,56.4z"/>
			<path i:knockout="Off" fill="#606060" d="M255.3,55.3c0.6,0,1.1,0.2,1.4,0.5c0.3,0.3,0.5,0.6,0.5,1c0,0.1,0,0.3-0.1,0.4
				c0,0.1-0.1,0.2-0.3,0.3c-0.2,0.1-0.4,0.3-0.7,0.4s-0.7,0.4-1.2,0.6c-0.2-0.2-0.4-0.4-0.7-0.6c-0.3-0.2-0.6-0.3-0.9-0.3
				c-0.4,0-0.7,0.1-1,0.3c-0.3,0.2-0.6,0.5-0.8,0.8c-0.2,0.4-0.4,0.8-0.5,1.2c-0.1,0.5-0.2,1-0.2,1.5V67c0,0.5,0.3,0.8,0.8,1.1
				c0.5,0.2,1.2,0.4,2.2,0.5c0.2,0,0.3,0.2,0.3,0.4c0,0.1,0,0.3-0.1,0.5c-0.2,0-0.5,0-0.9-0.1c-0.4,0-0.7,0-1.1-0.1
				c-0.4,0-0.8,0-1.2-0.1c-0.4,0-0.8,0-1.2,0c-0.6,0-1.2,0-1.8,0c-0.6,0-1.2,0.1-1.8,0.1c0-0.2-0.1-0.4-0.1-0.5
				c0-0.2,0.1-0.3,0.3-0.4c0.5-0.1,0.9-0.2,1.3-0.4c0.4-0.2,0.6-0.4,0.6-0.7v-8.3c0-0.5,0-0.8-0.1-1.1c-0.1-0.3-0.1-0.5-0.3-0.7
				c-0.1-0.2-0.3-0.3-0.6-0.4c-0.3-0.1-0.6-0.2-1-0.2c-0.3,0-0.4-0.2-0.4-0.4c0-0.1,0-0.3,0.1-0.5c0.3,0,0.7,0,1.2,0
				c0.5,0,0.9-0.1,1.3-0.1c0.5-0.1,0.9-0.2,1.3-0.3c0.4-0.1,0.6-0.1,0.8-0.1c0.3,0,0.5,0.2,0.5,0.5v2.2c0.7-0.8,1.4-1.4,2.1-1.9
				C253.6,55.5,254.4,55.3,255.3,55.3z"/>
			<path i:knockout="Off" fill="#606060" d="M265.8,59.3c-0.2,0-0.3,0-0.4-0.1c-0.1-0.1-0.1-0.2-0.1-0.2c-0.2-0.9-0.5-1.5-1.1-1.9
				c-0.6-0.4-1.2-0.6-2.1-0.6c-0.6,0-1.2,0.2-1.7,0.5c-0.5,0.4-0.7,0.8-0.7,1.5c0,0.6,0.2,1,0.7,1.4c0.4,0.4,1.3,0.8,2.4,1.1
				c0.6,0.2,1.2,0.4,1.7,0.7c0.5,0.2,1,0.5,1.4,0.9c0.4,0.3,0.7,0.8,0.9,1.2c0.2,0.5,0.3,1.1,0.3,1.7c0,0.6-0.1,1.1-0.3,1.6
				c-0.2,0.5-0.5,1-0.9,1.4s-1,0.7-1.6,0.9c-0.6,0.2-1.4,0.3-2.3,0.3c-0.7,0-1.5-0.1-2.3-0.3s-1.6-0.5-2.3-0.9
				c0-0.6-0.1-1.2-0.1-1.8c0-0.6,0-1.2,0-1.9l0.3,0c0.2,0,0.4,0,0.6,0.1c0.2,0.1,0.2,0.2,0.3,0.4c0.1,0.9,0.4,1.7,1.1,2.2
				c0.6,0.6,1.5,0.8,2.6,0.9c0.9,0,1.6-0.2,2.1-0.6c0.5-0.4,0.7-0.9,0.7-1.6c0-0.7-0.3-1.3-0.8-1.7c-0.5-0.4-1.3-0.7-2.3-1
				c-1.3-0.4-2.3-0.9-3-1.6c-0.7-0.6-1.1-1.6-1.1-2.8c0-0.6,0.1-1.1,0.3-1.6c0.2-0.5,0.5-0.9,0.9-1.3c0.4-0.4,0.9-0.7,1.4-0.9
				c0.6-0.2,1.2-0.3,1.9-0.3c0.9,0,1.7,0.1,2.5,0.4c0.8,0.2,1.4,0.5,1.8,0.7c0,0.2,0,0.4,0.1,0.6c0,0.3,0,0.5,0,0.8
				c0,0.3,0,0.5,0,0.8c0,0.3,0,0.5,0,0.7L265.8,59.3z"/>
			<path i:knockout="Off" fill="#606060" d="M281.7,55.3c0.8,0,1.5,0.2,2.1,0.4c0.6,0.3,1.1,0.7,1.5,1.2c0.4,0.5,0.6,1.1,0.8,1.8
				c0.2,0.7,0.3,1.4,0.3,2.2c0,1.6-0.2,2.9-0.8,4.1c-0.5,1.2-1.1,2.1-1.9,2.9c-0.8,0.8-1.6,1.3-2.6,1.7c-1,0.4-1.9,0.5-2.8,0.5
				c-0.8,0-1.4-0.1-1.9-0.4c-0.5-0.2-1-0.6-1.3-1.1c-0.3-0.5-0.6-1-0.7-1.7c-0.1-0.7-0.2-1.4-0.2-2.2c0-1.4,0.2-2.7,0.7-3.9
				c0.5-1.2,1.1-2.2,1.9-3c0.8-0.8,1.6-1.4,2.4-1.9C280.1,55.5,280.9,55.3,281.7,55.3z M279.1,68.8c0.7,0,1.3-0.2,1.8-0.6
				c0.6-0.4,1-0.9,1.4-1.6c0.4-0.7,0.7-1.5,0.9-2.4c0.2-0.9,0.3-2,0.3-3.1c0-1.4-0.2-2.5-0.5-3.3c-0.3-0.8-0.9-1.2-1.7-1.2
				c-0.7,0-1.4,0.2-1.9,0.7c-0.6,0.5-1,1.1-1.4,1.8c-0.4,0.8-0.7,1.6-0.9,2.5c-0.2,0.9-0.3,1.9-0.3,2.8c0,1.4,0.2,2.5,0.5,3.3
				C277.7,68.4,278.3,68.8,279.1,68.8z"/>
			<path i:knockout="Off" fill="#606060" d="M290.4,57l-2.5-0.1c0.1-0.7,0.3-1.1,0.7-1.1l2,0.1L291,53c0.2-0.9,0.5-1.8,0.9-2.5
				c0.5-0.8,1-1.4,1.6-1.9c0.6-0.5,1.3-0.9,2-1.2c0.7-0.3,1.4-0.4,2.1-0.4c0.5,0,1,0.2,1.5,0.5c-0.2,0.3-0.3,0.7-0.4,1
				c-0.1,0.4-0.2,0.8-0.3,1.2l-0.5,0.1c-0.2-0.3-0.5-0.6-0.8-0.8c-0.3-0.2-0.7-0.4-1.1-0.4c-0.3,0-0.6,0.1-0.8,0.2
				c-0.2,0.1-0.5,0.4-0.7,0.8c-0.2,0.4-0.4,1-0.6,1.8c-0.2,0.8-0.4,1.9-0.7,3.2l-0.2,1.3l3.5,0.1c-0.2,0.5-0.3,1-0.3,1.5
				c-0.5-0.1-1.1-0.2-1.7-0.2c-0.6-0.1-1.1-0.1-1.6-0.1l-1.6,9.4c-0.3,1.6-0.6,3-1,4.2c-0.4,1.2-0.8,2.2-1.3,3.1
				c-0.5,0.9-1,1.6-1.6,2.2s-1.3,1.1-2,1.5c-0.2,0.1-0.5,0.2-0.7,0.3c-0.2,0.1-0.5,0.1-0.8,0.1c-0.4,0-0.9-0.1-1.3-0.3
				c0.1-0.4,0.2-0.8,0.3-1.3c0.1-0.5,0.2-0.9,0.2-1.4l0.5-0.2c0.2,0.3,0.5,0.6,0.8,0.8c0.3,0.2,0.6,0.3,1,0.3c0.7,0,1.3-0.6,1.8-1.8
				c0.5-1.2,0.9-3,1.3-5.4L290.4,57z"/>
			<path i:knockout="Off" fill="#606060" d="M315.6,63l-7.3-0.3l-2.1,5.2c-0.1,0.3-0.2,0.5-0.2,0.6c0,0.5,0.7,0.8,2,1.1
				c0.2,0,0.3,0.1,0.3,0.2c0.1,0.1,0.1,0.2,0.1,0.3c0,0.1,0,0.3-0.1,0.5c-0.6-0.1-1.2-0.1-1.9-0.2c-0.7-0.1-1.3-0.1-1.9-0.1
				c-0.4,0-0.9,0-1.3,0c-0.5,0-0.9,0-1.4,0.1c0-0.2-0.1-0.4-0.1-0.5c0-0.2,0-0.3,0.1-0.4c0.1-0.1,0.2-0.2,0.3-0.2
				c0.7-0.1,1.2-0.2,1.5-0.3c0.3-0.1,0.6-0.4,0.7-0.7l7.9-18.6c0.2-0.4,0.4-0.5,0.6-0.5c0.1,0,0.2,0,0.4,0.1l7.9,19.8
				c0.1,0.3,0.4,0.6,0.9,0.8c0.5,0.2,0.9,0.3,1.3,0.4c0.1,0,0.2,0.1,0.3,0.2c0.1,0.1,0.1,0.2,0.1,0.4c0,0.1,0,0.3-0.1,0.5
				c-0.7-0.1-1.4-0.1-2.1-0.2c-0.7-0.1-1.3-0.1-1.9-0.1c-0.6,0-1.3,0-2.1,0c-0.8,0-1.5,0-2.1,0c0-0.2-0.1-0.4-0.1-0.5
				c0-0.2,0-0.3,0.1-0.4c0.1-0.1,0.1-0.1,0.2-0.1c0.6-0.1,1-0.2,1.4-0.3c0.3-0.1,0.5-0.3,0.5-0.6c0-0.1,0-0.3-0.1-0.5L315.6,63z
				 M315.1,61.7l-3-8.1l-3.2,7.9L315.1,61.7z"/>
			<path i:knockout="Off" fill="#606060" d="M338.2,61.1c0.1-0.1,0.3-0.3,0.6-0.6c0.3-0.3,0.7-0.7,1.2-1c0.5-0.4,1.1-0.7,1.7-1
				c0.6-0.3,1.3-0.4,2.1-0.4c1.3,0.1,2.2,0.5,2.8,1.3c0.5,0.8,0.8,1.9,0.8,3.3v7.9c0,0.3,0.2,0.6,0.6,0.8c0.4,0.2,0.8,0.3,1.3,0.5
				c0.2,0.1,0.3,0.2,0.3,0.4c0,0.1,0,0.3-0.1,0.5c-0.6-0.1-1.1-0.1-1.7-0.2c-0.5-0.1-1.1-0.1-1.8-0.2c-0.6,0-1.2-0.1-1.7-0.1
				c-0.6,0-1.2,0-1.7,0c0-0.2-0.1-0.4-0.1-0.5c0-0.2,0.1-0.3,0.3-0.4c0.2,0,0.4,0,0.6-0.1c0.2-0.1,0.4-0.1,0.6-0.2
				c0.2-0.1,0.3-0.2,0.4-0.3c0.1-0.1,0.2-0.3,0.2-0.4v-6.7c0-1.3-0.2-2.3-0.5-2.8c-0.3-0.5-0.9-0.8-1.6-0.8c-0.6,0-1.1,0-1.6,0.2
				c-0.5,0.2-1,0.4-1.4,0.7c-0.4,0.3-0.7,0.8-0.9,1.3c-0.2,0.5-0.4,1.1-0.4,1.8v5.9c0,0.3,0.2,0.6,0.6,0.8c0.4,0.2,0.8,0.3,1.2,0.4
				c0.2,0.1,0.3,0.2,0.3,0.4c0,0.1,0,0.3-0.1,0.5c-0.6-0.1-1.1-0.1-1.6-0.2c-0.5-0.1-1.1-0.1-1.7-0.1c-0.6,0-1.2-0.1-1.7-0.1
				c-0.6,0-1.1,0-1.7,0c0-0.2-0.1-0.4-0.1-0.5c0-0.2,0.1-0.3,0.3-0.4c0.4,0,0.8-0.1,1.2-0.3c0.4-0.1,0.6-0.4,0.6-0.7v-6.7
				c0-1.3-0.2-2.3-0.5-2.8c-0.3-0.5-0.8-0.8-1.6-0.8c-0.6,0-1.1,0-1.6,0.2c-0.5,0.2-1,0.4-1.4,0.7c-0.4,0.3-0.7,0.8-1,1.3
				c-0.2,0.5-0.4,1.1-0.4,1.8v5.9c0,0.3,0.2,0.6,0.6,0.8c0.4,0.2,0.8,0.3,1.2,0.4c0.2,0.1,0.3,0.2,0.3,0.4c0,0.1,0,0.3-0.1,0.5
				c-0.6-0.1-1.1-0.1-1.7-0.2c-0.5-0.1-1.1-0.1-1.7-0.2c-0.6,0-1.2-0.1-1.8-0.1s-1.1,0-1.7,0c0-0.2-0.1-0.4-0.1-0.5
				c0-0.2,0.1-0.3,0.3-0.4c0.5-0.1,0.9-0.2,1.3-0.3s0.6-0.4,0.6-0.7v-8.9c0-0.7-0.1-1.1-0.3-1.4c-0.2-0.3-0.7-0.5-1.5-0.6
				c-0.3-0.1-0.4-0.2-0.4-0.5c0-0.1,0-0.2,0.1-0.4c0.3,0,0.7,0,1.2,0c0.5,0,0.9,0,1.3,0c0.5-0.1,1-0.1,1.4-0.2
				c0.4-0.1,0.7-0.1,0.9-0.1c0.3,0,0.5,0.2,0.5,0.5c0,0.3,0,0.7-0.1,1.1c-0.1,0.4-0.1,1-0.1,1.7c0.1-0.1,0.2-0.3,0.6-0.6
				c0.3-0.3,0.7-0.7,1.2-1c0.5-0.4,1-0.7,1.7-1c0.6-0.3,1.3-0.4,2.1-0.4c1.1,0.1,2,0.4,2.5,1C337.7,59.2,338,60,338.2,61.1z"/>
			<path i:knockout="Off" fill="#606060" d="M362.4,70.6c0.2-0.1,0.3-0.2,0.5-0.2c0.2,0,0.4,0.2,0.6,0.6c-0.3,0.4-0.6,0.7-1,1.1
				c-0.4,0.3-0.8,0.6-1.3,0.9c-0.5,0.3-1.1,0.4-1.7,0.6c-0.7,0.1-1.4,0.2-2.2,0.1c-0.9-0.1-1.7-0.3-2.5-0.6
				c-0.8-0.3-1.5-0.8-2.1-1.5c-0.6-0.6-1.1-1.4-1.4-2.3c-0.4-0.9-0.5-1.9-0.5-3.1c0-1.1,0.2-2.1,0.6-3c0.4-0.9,1-1.7,1.6-2.3
				c0.7-0.6,1.4-1.1,2.2-1.4c0.8-0.3,1.6-0.4,2.4-0.4c2,0.2,3.5,0.9,4.4,2.1s1.4,2.8,1.4,4.7c0,0.1-0.1,0.2-0.2,0.2l-9.4-0.3
				c0,0.8,0.1,1.6,0.4,2.4c0.2,0.7,0.6,1.4,1,1.9c0.4,0.6,1,1,1.6,1.3c0.6,0.3,1.3,0.5,2.1,0.6c0.7,0.1,1.4-0.1,2-0.3
				C361.4,71.4,361.9,71.1,362.4,70.6z M357.1,60.2c-1.1-0.1-1.9,0.3-2.5,1.1c-0.6,0.8-0.9,1.9-0.9,3.3l6.1,0.2
				c0.3,0,0.5-0.1,0.5-0.4c0-0.4-0.1-0.9-0.2-1.3c-0.1-0.5-0.3-0.9-0.6-1.3c-0.3-0.4-0.6-0.7-1-1C358.1,60.5,357.6,60.3,357.1,60.2z
				"/>
			<path i:knockout="Off" fill="#606060" d="M374.2,60.6c0.6,0.1,1.1,0.3,1.4,0.6c0.3,0.3,0.5,0.7,0.5,1.1c0,0.1,0,0.2-0.1,0.4
				c0,0.1-0.1,0.2-0.3,0.3c-0.2,0.1-0.4,0.2-0.7,0.4c-0.3,0.1-0.7,0.3-1.2,0.5c-0.2-0.3-0.4-0.5-0.7-0.7c-0.3-0.2-0.6-0.3-0.9-0.3
				c-0.4,0-0.7,0-1,0.2c-0.3,0.2-0.6,0.4-0.8,0.8c-0.2,0.3-0.4,0.7-0.5,1.2c-0.1,0.5-0.2,0.9-0.2,1.4v5.6c0,0.5,0.2,0.9,0.7,1.1
				c0.5,0.3,1.2,0.5,2.1,0.7c0.2,0.1,0.3,0.2,0.3,0.4c0,0.1,0,0.3-0.1,0.5c-0.2,0-0.5-0.1-0.9-0.1c-0.4,0-0.7-0.1-1.1-0.1
				c-0.4-0.1-0.8-0.1-1.2-0.2c-0.4,0-0.8-0.1-1.1-0.1c-0.6-0.1-1.2-0.1-1.8-0.1s-1.2,0-1.8,0c0-0.2-0.1-0.4-0.1-0.5
				c0-0.2,0.1-0.3,0.3-0.4c0.5,0,0.9-0.1,1.3-0.3c0.4-0.1,0.6-0.4,0.6-0.7v-8.3c0-0.5,0-0.8-0.1-1.1c-0.1-0.3-0.1-0.6-0.3-0.8
				c-0.1-0.2-0.3-0.3-0.6-0.5c-0.3-0.1-0.6-0.2-1-0.3c-0.3-0.1-0.4-0.2-0.4-0.5c0-0.1,0-0.3,0.1-0.5c0.3,0,0.7,0,1.2,0.1
				c0.5,0,0.9,0,1.3,0c0.5,0,0.9-0.1,1.3-0.2c0.4-0.1,0.6-0.1,0.8-0.1c0.3,0,0.5,0.2,0.5,0.5v2.2c0.7-0.7,1.4-1.3,2.1-1.7
				C372.5,60.7,373.3,60.5,374.2,60.6z"/>
			<path i:knockout="Off" fill="#606060" d="M379.9,75.2c-0.4,0-0.8-0.1-1.1-0.1c-0.4,0-0.7,0-1.1-0.1c-0.3,0-0.6,0-0.8,0
				c-0.2,0-0.4,0-0.5,0c0,0,0-0.1,0-0.2c0-0.1,0-0.2,0-0.3c0-0.2,0.1-0.3,0.3-0.4c0.6-0.1,1-0.1,1.4-0.3c0.3-0.1,0.5-0.4,0.5-0.7
				v-8.9c0-0.7-0.1-1.1-0.3-1.4c-0.2-0.3-0.7-0.5-1.5-0.7c-0.3-0.1-0.4-0.2-0.4-0.5c0-0.1,0-0.2,0.1-0.4c0.3,0,0.7,0.1,1.2,0.1
				c0.5,0,0.9,0,1.3,0c0.5,0,1-0.1,1.3-0.1c0.4-0.1,0.7-0.1,0.9-0.1c0.3,0,0.5,0.2,0.5,0.5c0,0.3,0,0.7-0.1,1.1
				c-0.1,0.4-0.1,1-0.1,1.7v9c0,0.3,0.2,0.6,0.5,0.8c0.3,0.2,0.8,0.4,1.4,0.5c0.2,0.1,0.3,0.2,0.3,0.4c0,0.1,0,0.2,0,0.3
				c0,0.1,0,0.2,0,0.2c-0.1,0-0.2,0-0.4-0.1c-0.2,0-0.5-0.1-0.8-0.1c-0.3-0.1-0.7-0.1-1.1-0.2C380.6,75.3,380.3,75.3,379.9,75.2z
				 M378,55.4c0-0.5,0.2-1,0.5-1.3c0.4-0.3,0.8-0.5,1.3-0.4c0.5,0.1,1,0.3,1.3,0.7c0.3,0.4,0.5,0.9,0.5,1.4c0,0.6-0.2,1-0.5,1.3
				c-0.3,0.3-0.8,0.4-1.3,0.4c-0.5-0.1-1-0.3-1.3-0.7C378.2,56.5,378,56,378,55.4z"/>
			<path i:knockout="Off" fill="#606060" d="M390.9,63.5c-1-0.1-1.8,0.2-2.5,1.1c-0.6,0.8-1,2-1,3.5c0,2.1,0.5,3.8,1.4,5.1
				s2.2,2,3.7,2.2c0.7,0.1,1.3,0,1.7-0.1c0.5-0.2,0.9-0.3,1.2-0.5c0.1,0,0.1-0.1,0.2-0.1c0.1,0,0.2-0.1,0.3-0.1
				c0.1,0,0.2,0.1,0.4,0.3c0.1,0.2,0.2,0.3,0.3,0.4c-0.2,0.2-0.5,0.5-0.8,0.7c-0.3,0.2-0.7,0.4-1.2,0.6c-0.5,0.2-1,0.3-1.6,0.4
				s-1.3,0.1-2.1,0c-0.9-0.1-1.7-0.3-2.5-0.7c-0.8-0.4-1.5-0.9-2.1-1.6c-0.6-0.7-1.1-1.4-1.4-2.4c-0.3-0.9-0.5-2-0.5-3.1
				c0-1.1,0.2-2.1,0.6-3c0.4-0.9,1-1.6,1.6-2.2s1.4-1,2.2-1.3c0.8-0.3,1.6-0.4,2.4-0.3c0.8,0.1,1.5,0.3,2.2,0.5
				c0.6,0.2,1.2,0.5,1.7,0.9c0.5,0.3,0.8,0.7,1.1,1.1c0.2,0.4,0.4,0.8,0.4,1.2c0,0.1-0.1,0.2-0.3,0.3c-0.2,0.1-0.5,0.1-0.7,0.1
				c-0.3,0-0.5,0-0.8,0c-0.2,0-0.4,0-0.4,0c-0.3,0-0.5-0.2-0.7-0.5c-0.2-0.3-0.3-0.6-0.5-0.9c-0.2-0.3-0.5-0.7-0.8-1
				C392,63.8,391.5,63.6,390.9,63.5z"/>
			<path i:knockout="Off" fill="#606060" d="M411.3,78.1c0.2,0,0.4,0.3,0.4,0.7c-0.6,0.3-1.3,0.4-2.1,0.3c-0.5-0.1-0.9-0.2-1.2-0.4
				c-0.4-0.2-0.6-0.4-0.9-0.7c-0.2-0.3-0.4-0.6-0.6-0.9c-0.1-0.3-0.2-0.6-0.3-1c-0.5,0.9-1.2,1.5-1.9,1.7c-0.7,0.3-1.6,0.3-2.6,0.2
				c-0.4-0.1-0.9-0.2-1.4-0.3c-0.5-0.1-0.9-0.4-1.4-0.7c-0.4-0.3-0.8-0.7-1.1-1.2s-0.4-1.1-0.4-1.8c0-0.8,0.2-1.5,0.6-2
				c0.4-0.5,0.9-0.9,1.5-1.2c0.6-0.3,1.2-0.5,1.9-0.6c0.7-0.1,1.4-0.2,2-0.3c0.4,0,0.7,0,1-0.1c0.3,0,0.6-0.1,0.8-0.1
				c0.3,0,0.5-0.1,0.6-0.3c0.1-0.1,0.1-0.4,0.1-0.9c0-1-0.2-1.9-0.6-2.6c-0.4-0.7-1.1-1.1-2.1-1.3c-0.4,0-0.7,0-0.9,0
				c-0.3,0.1-0.5,0.2-0.6,0.3c-0.2,0.2-0.3,0.4-0.5,0.7c-0.1,0.3-0.3,0.6-0.4,1c-0.1,0.2-0.2,0.4-0.4,0.5c-0.2,0.1-0.6,0.2-1.1,0.2
				c-0.1,0-0.3,0-0.5,0.1c-0.2,0-0.4,0-0.5,0c-0.2,0-0.3-0.3-0.3-0.7c0-0.5,0.2-0.9,0.6-1.4c0.4-0.4,0.8-0.8,1.4-1.1
				c0.6-0.3,1.2-0.5,1.9-0.6c0.7-0.1,1.3-0.2,1.9-0.1c0.8,0.1,1.4,0.3,2,0.5c0.6,0.2,1.1,0.5,1.6,0.9c0.4,0.4,0.8,0.9,1,1.5
				c0.2,0.6,0.3,1.4,0.3,2.3v5.6c0,0.8,0,1.3,0.1,1.7c0.1,0.3,0.1,0.6,0.2,0.8c0.2,0.3,0.3,0.5,0.5,0.7c0.2,0.1,0.4,0.2,0.6,0.2
				c0.2,0,0.4,0,0.5,0C411.1,78.1,411.2,78.1,411.3,78.1z M406.3,71.1l-1,0c-0.6,0-1.1,0.1-1.6,0.2c-0.5,0.1-1,0.2-1.4,0.4
				c-0.4,0.2-0.7,0.5-1,0.9c-0.3,0.4-0.4,0.9-0.4,1.5c0,0.8,0.2,1.5,0.6,2c0.4,0.5,0.9,0.8,1.6,0.9c0.4,0.1,0.8,0,1.2-0.1
				c0.4-0.1,0.7-0.3,1-0.6c0.3-0.3,0.5-0.7,0.7-1.1c0.2-0.4,0.3-0.9,0.3-1.5V71.1z"/>
		</g>
	</g>
</g>
</svg>
