<?xml version="1.0" standalone="no"?>
<!DOCTYPE svg PUBLIC "-//W3C//DTD SVG 20010904//EN"
 "http://www.w3.org/TR/2001/REC-SVG-20010904/DTD/svg10.dtd">
<svg version="1.0" xmlns="http://www.w3.org/2000/svg"
 width="700.000000pt" height="700.000000pt" viewBox="0 0 700.000000 700.000000"
 preserveAspectRatio="xMidYMid meet">
<metadata>
Created by potrace 1.11, written by Peter Selinger 2001-2013
</metadata>
<g transform="translate(0.000000,700.000000) scale(0.100000,-0.100000)"
fill="#000000" stroke="none">
<path d="M1985 6839 c-3 -4 2 -6 10 -5 21 3 28 13 10 13 -9 0 -18 -4 -20 -8z"/>
<path d="M5436 6807 c3 -10 9 -15 12 -12 3 3 0 11 -7 18 -10 9 -11 8 -5 -6z"/>
<path d="M3053 6783 c5 -8 -8 -11 -45 -11 -29 1 -99 0 -154 -2 -56 -1 -106 0
-112 4 -6 3 -13 2 -16 -2 -3 -5 -40 -10 -83 -10 -43 -1 -114 -4 -158 -6 -44
-3 -125 -7 -180 -10 -55 -3 -115 -8 -132 -10 -22 -3 -33 -1 -33 7 0 9 -2 9 -8
1 -4 -6 -47 -14 -97 -18 -49 -4 -108 -9 -130 -11 -22 -2 -65 -6 -95 -9 -30 -3
-89 -8 -130 -12 -41 -4 -83 -8 -92 -8 -10 0 -18 -3 -18 -6 0 -3 -17 -6 -37 -7
-20 -1 -47 -4 -59 -7 -16 -4 -24 -1 -27 11 -4 16 -5 16 -6 1 -1 -12 -16 -18
-63 -24 -35 -5 -73 -8 -85 -8 -13 0 -23 -2 -23 -5 0 -3 -13 -7 -28 -8 -26 -2
-40 -4 -109 -19 -16 -3 -39 -7 -53 -9 -14 -2 -26 -4 -27 -6 -3 -2 -19 -6 -31
-8 -5 0 -8 -123 -8 -272 1 -149 -2 -273 -7 -276 -4 -2 -4 -10 0 -16 11 -19 10
-947 -2 -947 -6 0 -6 -3 1 -8 13 -9 12 -144 -1 -154 -7 -5 -7 -8 0 -8 6 0 10
-138 10 -395 0 -257 -4 -395 -10 -395 -6 0 -6 -3 1 -8 13 -9 12 -144 -1 -154
-7 -5 -7 -8 0 -8 7 0 10 -203 11 -588 1 -323 4 -609 8 -637 4 -27 9 -61 10
-75 2 -14 6 -32 8 -40 9 -25 31 -143 32 -167 1 -11 4 -19 8 -16 5 2 8 -5 8
-16 0 -11 5 -33 11 -48 6 -15 15 -37 20 -48 6 -16 18 -51 24 -75 11 -38 138
-290 179 -355 11 -16 35 -55 54 -85 36 -56 128 -186 147 -206 5 -6 19 -23 30
-38 11 -15 39 -49 62 -74 24 -26 41 -52 38 -59 -2 -8 2 -10 12 -6 12 5 15 2
10 -10 -4 -10 -2 -16 6 -14 7 1 11 -4 9 -11 -1 -8 1 -11 6 -8 12 7 64 -48 55
-58 -5 -4 -3 -6 3 -4 13 4 200 -181 196 -194 -1 -5 2 -7 7 -3 6 3 23 -6 38
-20 15 -13 40 -36 55 -49 15 -13 24 -27 20 -32 -4 -4 -2 -5 3 -1 6 3 25 -7 41
-21 17 -15 46 -38 64 -52 18 -14 38 -30 45 -37 6 -6 63 -48 126 -94 63 -45
116 -86 117 -91 2 -4 8 -8 13 -8 5 0 53 -29 107 -64 113 -74 326 -196 429
-245 40 -19 69 -39 66 -44 -3 -6 -1 -7 5 -3 14 8 204 -68 194 -79 -4 -5 -2 -5
5 -1 6 3 31 0 55 -8 24 -8 54 -17 68 -20 14 -2 44 -9 67 -14 98 -23 268 20
500 124 17 8 36 14 41 14 6 0 12 3 14 8 4 10 81 47 96 45 6 0 12 2 12 7 0 12
51 31 63 24 7 -4 9 -3 4 1 -7 9 75 66 99 69 7 1 21 9 31 17 26 22 73 50 73 44
0 -3 9 4 20 15 11 11 27 20 35 20 8 0 15 5 15 11 0 6 7 8 16 5 8 -3 12 -2 9 4
-3 6 2 13 12 17 10 4 24 13 31 20 7 7 20 13 28 13 8 0 14 3 14 8 0 4 17 18 38
32 20 14 57 40 82 58 25 19 58 43 74 55 16 12 69 54 117 92 47 39 98 79 112
90 14 11 45 38 68 60 24 22 47 39 51 38 5 -2 8 4 8 12 0 14 12 20 33 16 5 -1
6 3 3 7 -8 14 31 45 45 36 8 -4 10 -3 5 5 -5 8 22 42 72 94 90 93 132 138 181
196 18 22 39 38 45 34 6 -3 8 -3 4 2 -11 11 11 47 24 39 7 -4 8 -3 4 5 -4 6 0
18 8 26 8 9 30 36 47 60 18 25 37 45 42 45 6 0 7 3 4 6 -6 6 26 60 43 74 3 3
37 59 75 125 38 66 73 123 78 126 5 3 8 8 6 10 -6 11 14 48 23 43 6 -4 8 -2 5
4 -10 15 3 43 16 35 6 -3 7 -1 3 5 -4 6 4 37 17 69 14 32 30 76 37 98 7 22 16
45 20 50 4 6 10 27 14 48 4 21 11 35 16 32 6 -3 7 1 4 9 -3 9 -3 24 1 34 5 9
9 24 11 32 6 31 16 86 20 108 2 12 7 34 10 50 3 15 8 74 11 132 3 58 10 111
17 119 8 12 8 13 -2 7 -15 -9 -13 55 3 66 6 5 5 8 -2 8 -15 0 -13 50 2 50 6 0
7 3 0 8 -15 11 -18 42 -5 57 6 8 7 16 2 19 -12 7 -10 86 2 105 6 9 5 12 -1 8
-11 -7 -12 172 -1 189 4 6 4 14 1 18 -13 12 -12 96 1 96 6 0 4 5 -4 10 -13 9
-13 11 0 20 8 5 10 10 4 10 -14 0 -13 98 0 119 6 9 5 12 -1 8 -6 -4 -10 4 -10
18 0 16 4 22 11 18 8 -5 8 -3 0 8 -6 8 -11 23 -11 34 0 11 5 26 11 34 8 11 8
13 0 8 -14 -8 -14 91 0 112 6 9 5 12 -1 8 -6 -4 -10 4 -10 18 0 16 4 22 11 18
8 -5 8 -3 0 8 -13 17 -13 177 0 198 6 9 5 12 -1 8 -12 -7 -12 172 0 190 4 6 3
14 -1 17 -12 7 -10 86 2 105 6 9 5 12 -1 8 -11 -7 -12 172 -1 189 4 6 4 14 1
18 -13 12 -12 96 1 96 6 0 4 5 -4 10 -13 9 -13 11 0 20 8 5 10 10 4 10 -14 0
-13 98 0 119 6 9 5 12 -1 8 -6 -4 -10 4 -10 18 0 16 4 22 11 18 8 -5 8 -3 0 8
-6 8 -11 23 -11 34 0 11 5 26 11 34 8 11 8 13 0 8 -14 -8 -14 91 0 112 6 9 5
12 -1 8 -6 -4 -10 4 -10 18 0 16 4 22 11 18 8 -5 8 -3 0 8 -13 17 -13 177 0
198 6 9 5 12 -1 8 -12 -7 -12 172 0 190 4 6 3 14 -1 17 -12 7 -10 86 2 105 6
9 5 12 -1 8 -11 -7 -12 172 -1 189 4 6 4 14 1 18 -13 12 -12 96 1 96 6 0 4 5
-4 10 -13 9 -13 11 0 20 8 5 10 10 4 10 -14 0 -13 98 0 119 6 9 5 12 -1 8 -6
-4 -10 4 -10 18 0 14 4 22 10 18 6 -4 7 -1 1 8 -13 20 -14 90 -1 82 6 -4 7 -1
1 8 -13 20 -13 113 0 121 8 5 7 8 -1 8 -8 0 -11 11 -9 30 2 17 3 30 2 30 -27
0 -123 25 -128 33 -6 9 -8 9 -8 0 0 -8 -9 -9 -32 -2 -18 5 -45 9 -60 9 -14 0
-29 6 -31 13 -4 9 -6 9 -6 -1 -1 -7 -5 -10 -11 -7 -5 3 -31 8 -57 11 -27 3
-59 7 -73 11 -14 3 -47 7 -75 9 -27 2 -65 6 -83 9 -18 3 -61 8 -94 11 -34 2
-66 9 -73 14 -6 5 -17 5 -25 0 -8 -5 -17 -7 -20 -5 -6 4 -158 17 -197 18 -7 0
-13 3 -13 6 0 3 -33 7 -73 7 -39 1 -115 4 -167 8 -52 3 -126 8 -165 10 -64 5
-304 15 -450 20 -33 1 -66 5 -72 9 -6 4 -14 3 -18 -3 -4 -6 -10 -8 -15 -5 -4
3 -155 7 -334 9 -179 3 -330 7 -335 10 -5 4 -13 1 -17 -5 -4 -8 -9 -7 -15 2
-6 9 -9 10 -9 2 0 -8 -9 -9 -29 -3 -16 4 -32 5 -35 2 -12 -11 -280 -9 -295 2
-11 8 -13 8 -8 -1z"/>
<path d="M2000 6760 c-9 -6 -10 -10 -3 -10 6 0 15 5 18 10 8 12 4 12 -15 0z"/>
<path d="M6116 6682 c-3 -5 1 -9 9 -9 8 0 12 4 9 9 -3 4 -7 8 -9 8 -2 0 -6 -4
-9 -8z"/>
<path d="M6266 5878 c3 -5 10 -6 15 -3 13 9 11 12 -6 12 -8 0 -12 -4 -9 -9z"/>
<path d="M6266 5558 c3 -5 10 -6 15 -3 13 9 11 12 -6 12 -8 0 -12 -4 -9 -9z"/>
<path d="M6266 5078 c3 -5 10 -6 15 -3 13 9 11 12 -6 12 -8 0 -12 -4 -9 -9z"/>
<path d="M6266 4598 c3 -5 10 -6 15 -3 13 9 11 12 -6 12 -8 0 -12 -4 -9 -9z"/>
<path d="M6266 4278 c3 -5 10 -6 15 -3 13 9 11 12 -6 12 -8 0 -12 -4 -9 -9z"/>
<path d="M6266 3798 c3 -5 10 -6 15 -3 13 9 11 12 -6 12 -8 0 -12 -4 -9 -9z"/>
<path d="M6266 3318 c3 -5 10 -6 15 -3 13 9 11 12 -6 12 -8 0 -12 -4 -9 -9z"/>
<path d="M6266 2998 c3 -5 10 -6 15 -3 13 9 11 12 -6 12 -8 0 -12 -4 -9 -9z"/>
<path d="M6116 2842 c-3 -5 1 -9 9 -9 8 0 12 4 9 9 -3 4 -7 8 -9 8 -2 0 -6 -4
-9 -8z"/>
<path d="M6036 2198 c3 -5 10 -6 15 -3 13 9 11 12 -6 12 -8 0 -12 -4 -9 -9z"/>
<path d="M5675 1681 c-3 -5 -2 -12 3 -15 5 -3 9 1 9 9 0 17 -3 19 -12 6z"/>
<path d="M5226 998 c3 -5 10 -6 15 -3 13 9 11 12 -6 12 -8 0 -12 -4 -9 -9z"/>
<path d="M4955 760 c3 -5 8 -10 11 -10 2 0 4 5 4 10 0 6 -5 10 -11 10 -5 0 -7
-4 -4 -10z"/>
<path d="M4596 518 c3 -5 10 -6 15 -3 13 9 11 12 -6 12 -8 0 -12 -4 -9 -9z"/>
</g>
</svg>
